<svg xmlns="http://www.w3.org/2000/svg" xmlns:xlink="http://www.w3.org/1999/xlink" width="900" zoomAndPan="magnify" viewBox="0 0 675 149.999998" height="200" preserveAspectRatio="xMidYMid meet" version="1.0"><defs><g/><clipPath id="id1"><path d="M 23.300781 32.023438 L 109.550781 32.023438 L 109.550781 118.273438 L 23.300781 118.273438 Z M 23.300781 32.023438 " clip-rule="nonzero"/></clipPath><clipPath id="id2"><path d="M 27.171875 35.535156 L 105.171875 35.535156 L 105.171875 113.535156 L 27.171875 113.535156 Z M 27.171875 35.535156 " clip-rule="nonzero"/></clipPath><clipPath id="id3"><path d="M 30.804688 39.527344 L 102.054688 39.527344 L 102.054688 110.777344 L 30.804688 110.777344 Z M 30.804688 39.527344 " clip-rule="nonzero"/></clipPath><clipPath id="id4"><path d="M 34.648438 43.367188 L 97.648438 43.367188 L 97.648438 106.367188 L 34.648438 106.367188 Z M 34.648438 43.367188 " clip-rule="nonzero"/></clipPath><clipPath id="id5"><path d="M 39.519531 48.355469 L 95 48.355469 L 95 101.605469 L 39.519531 101.605469 Z M 39.519531 48.355469 " clip-rule="nonzero"/></clipPath></defs><g clip-path="url(#id1)"><path fill="#5f9d00" d="M 66.425781 32.023438 C 42.609375 32.023438 23.300781 51.332031 23.300781 75.148438 C 23.300781 98.964844 42.609375 118.273438 66.425781 118.273438 C 90.242188 118.273438 109.550781 98.964844 109.550781 75.148438 C 109.550781 51.332031 90.242188 32.023438 66.425781 32.023438 " fill-opacity="1" fill-rule="nonzero"/></g><g clip-path="url(#id2)"><path fill="#c2d93c" d="M 66.171875 35.535156 C 44.632812 35.535156 27.171875 52.996094 27.171875 74.535156 C 27.171875 96.074219 44.632812 113.535156 66.171875 113.535156 C 87.710938 113.535156 105.171875 96.074219 105.171875 74.535156 C 105.171875 52.996094 87.710938 35.535156 66.171875 35.535156 " fill-opacity="1" fill-rule="nonzero"/></g><g clip-path="url(#id3)"><path fill="#efdd9c" d="M 66.429688 39.527344 C 46.753906 39.527344 30.804688 55.476562 30.804688 75.152344 C 30.804688 94.824219 46.753906 110.777344 66.429688 110.777344 C 86.105469 110.777344 102.054688 94.824219 102.054688 75.152344 C 102.054688 55.476562 86.105469 39.527344 66.429688 39.527344 " fill-opacity="1" fill-rule="nonzero"/></g><g clip-path="url(#id4)"><path fill="#f9e8b4" d="M 66.148438 43.367188 C 48.75 43.367188 34.648438 57.472656 34.648438 74.867188 C 34.648438 92.265625 48.75 106.367188 66.148438 106.367188 C 83.542969 106.367188 97.648438 92.265625 97.648438 74.867188 C 97.648438 57.472656 83.542969 43.367188 66.148438 43.367188 " fill-opacity="1" fill-rule="nonzero"/></g><path fill="#f7bc5c" d="M 76.320312 60.46875 C 79.886719 62.15625 82.421875 66.46875 82.382812 70.265625 C 82.363281 72.703125 81.164062 74.363281 78.679688 73.535156 C 76.539062 72.820312 74.289062 73.246094 72.453125 73.960938 C 70.101562 74.878906 68.578125 75.734375 68.800781 76.90625 C 69.367188 79.898438 74.082031 81.167969 76.703125 80.84375 C 79.058594 80.550781 82.585938 81.199219 81.53125 84.375 C 80.535156 87.367188 77.160156 90.511719 74.332031 91.851562 C 70.222656 93.796875 66.515625 92.714844 67.667969 88.757812 C 67.945312 87.8125 68.074219 86.957031 68.082031 86.171875 C 68.089844 85.113281 67.578125 82.984375 66.753906 81.347656 C 64.632812 77.109375 62.167969 79.867188 61.34375 82.925781 C 61.003906 84.179688 60.875 85.585938 60.660156 87.320312 C 60.550781 88.222656 60.417969 88.953125 60.257812 89.539062 C 59.128906 93.640625 54.273438 90.484375 52.355469 88.65625 C 47.722656 84.25 47.347656 76.121094 52.382812 77.796875 C 55.050781 78.6875 58.070312 78.113281 60.484375 76.832031 C 65.921875 73.9375 58.574219 71.394531 53.828125 70.816406 C 49.84375 70.332031 48.433594 68.929688 50.007812 65.230469 C 50.742188 63.515625 51.980469 61.9375 53.390625 60.695312 C 54.65625 59.578125 56.066406 58.742188 57.382812 58.320312 C 63.554688 56.335938 63.171875 60.511719 63.101562 64.5 C 63.074219 66.027344 63.40625 67.808594 63.957031 69.339844 C 65.652344 74.074219 67.398438 73.085938 69.632812 69.605469 C 70.992188 67.484375 71.363281 65.761719 71.429688 62.960938 C 71.492188 60.160156 72.5625 58.691406 76.320312 60.46875 " fill-opacity="1" fill-rule="evenodd"/><g clip-path="url(#id5)"><path fill="#f9e8b4" d="M 82.953125 57.976562 C 78.515625 53.554688 72.382812 50.820312 65.609375 50.820312 C 58.835938 50.820312 52.703125 53.554688 48.265625 57.976562 C 43.828125 62.394531 41.082031 68.503906 41.082031 75.25 C 41.082031 81.996094 43.828125 88.101562 48.265625 92.523438 C 52.703125 96.941406 58.835938 99.675781 65.609375 99.675781 C 72.382812 99.675781 78.515625 96.941406 82.953125 92.523438 C 87.394531 88.101562 90.140625 81.996094 90.140625 75.25 C 90.140625 68.503906 87.394531 62.394531 82.953125 57.976562 Z M 58.546875 100.265625 C 54.179688 99.046875 50.277344 96.722656 47.164062 93.621094 C 42.441406 88.917969 39.519531 82.421875 39.519531 75.25 C 39.519531 61.902344 49.121094 51.96875 61.222656 49.320312 C 65.347656 48.417969 69.367188 48.355469 73.109375 49 C 98.015625 53.273438 101.769531 83.90625 82.851562 96.433594 C 80.179688 98.203125 77.082031 99.550781 73.566406 100.347656 C 68.722656 101.441406 63.347656 101.609375 58.546875 100.265625 " fill-opacity="1" fill-rule="nonzero"/></g><g fill="#5f9d00" fill-opacity="1"><g transform="translate(137.253483, 92.265718)"><g><path d="M 39.546875 -37.128906 L 39.546875 -40.292969 L 4.71875 -40.292969 L 4.71875 0 L 7.828125 0 L 7.828125 -18.535156 L 28.320312 -18.535156 L 28.320312 -21.699219 L 7.828125 -21.699219 L 7.828125 -37.128906 Z M 39.546875 -37.128906 "/></g></g></g><g fill="#5f9d00" fill-opacity="1"><g transform="translate(181.691759, 92.265718)"><g><path d="M 39.546875 -37.128906 L 39.546875 -40.292969 L 4.71875 -40.292969 L 4.71875 0 L 39.546875 0 L 39.546875 -3.109375 L 7.828125 -3.109375 L 7.828125 -18.535156 L 28.320312 -18.535156 L 28.320312 -21.699219 L 7.828125 -21.699219 L 7.828125 -37.128906 Z M 39.546875 -37.128906 "/></g></g></g><g fill="#5f9d00" fill-opacity="1"><g transform="translate(226.130035, 92.265718)"><g><path d="M 7.828125 0 L 7.828125 -40.292969 L 4.71875 -40.292969 L 4.71875 0 Z M 7.828125 0 "/></g></g></g><g fill="#5f9d00" fill-opacity="1"><g transform="translate(238.851355, 92.265718)"><g><path d="M 18.132812 0 C 27.746094 0 35.515625 -7.769531 35.515625 -17.382812 L 35.515625 -40.292969 L 32.40625 -40.292969 L 32.40625 -17.382812 C 32.40625 -9.496094 26.019531 -3.109375 18.132812 -3.109375 C 14.277344 -3.109375 10.707031 -4.605469 8 -7.308594 L 6.90625 -8.402344 L 4.71875 -6.160156 L 5.8125 -5.066406 C 9.09375 -1.785156 13.46875 0 18.132812 0 Z M 18.132812 0 "/></g></g></g><g fill="#5f9d00" fill-opacity="1"><g transform="translate(279.202682, 92.265718)"><g><path d="M 24.808594 0 C 35.917969 0 44.957031 -9.039062 44.957031 -20.148438 C 44.957031 -31.257812 35.917969 -40.292969 24.808594 -40.292969 C 13.757812 -40.292969 4.71875 -31.257812 4.71875 -20.148438 C 4.71875 -9.039062 13.757812 0 24.808594 0 Z M 24.808594 -37.128906 C 34.25 -37.128906 41.847656 -29.53125 41.847656 -20.148438 C 41.847656 -10.707031 34.25 -3.109375 24.808594 -3.109375 C 15.425781 -3.109375 7.828125 -10.707031 7.828125 -20.148438 C 7.828125 -29.53125 15.425781 -37.128906 24.808594 -37.128906 Z M 24.808594 -37.128906 "/></g></g></g><g fill="#5f9d00" fill-opacity="1"><g transform="translate(328.994263, 92.265718)"><g><path d="M 21.875 -40.292969 L 4.71875 0 L 8.058594 0 L 11.683594 -8.402344 L 34.132812 -8.402344 L 37.761719 0 L 41.15625 0 L 23.945312 -40.292969 Z M 13.007812 -11.511719 L 22.910156 -34.710938 L 32.8125 -11.511719 Z M 13.007812 -11.511719 "/></g></g></g><path stroke-linecap="butt" transform="matrix(0.00000000000000023, 3.75, -3.75, 0.00000000000000023, 392.612532, 37.140725)" fill="none" stroke-linejoin="miter" d="M -0.0000266329 -0.000199927 L 19.999975 -0.000199927 " stroke="#5f9d00" stroke-width="1" stroke-opacity="1" stroke-miterlimit="4"/><g fill="#5f9d00" fill-opacity="1"><g transform="translate(409.510963, 84.749997)"><g><path d="M 11.3125 -23.492188 L 2.753906 -23.492188 L 2.753906 0 L 11.3125 0 C 17.789062 0 23.058594 -5.269531 23.058594 -11.746094 C 23.058594 -18.222656 17.789062 -23.492188 11.3125 -23.492188 Z M 11.3125 -1.8125 L 4.566406 -1.8125 L 4.566406 -21.648438 L 11.3125 -21.648438 C 16.78125 -21.648438 21.246094 -17.21875 21.246094 -11.746094 C 21.246094 -6.242188 16.78125 -1.8125 11.3125 -1.8125 Z M 11.3125 -1.8125 "/></g></g></g><g fill="#5f9d00" fill-opacity="1"><g transform="translate(435.421198, 84.749997)"><g><path d="M 12.753906 -23.492188 L 2.753906 0 L 4.699219 0 L 6.8125 -4.898438 L 19.902344 -4.898438 L 22.015625 0 L 23.996094 0 L 13.960938 -23.492188 Z M 7.585938 -6.710938 L 13.359375 -20.238281 L 19.128906 -6.710938 Z M 7.585938 -6.710938 "/></g></g></g><g fill="#5f9d00" fill-opacity="1"><g transform="translate(462.237622, 84.749997)"><g><path d="M 9.0625 -21.648438 L 16.714844 -21.648438 C 19.199219 -21.648438 21.246094 -19.632812 21.246094 -17.152344 L 23.058594 -17.152344 C 23.058594 -20.640625 20.203125 -23.492188 16.714844 -23.492188 L 9.0625 -23.492188 C 5.570312 -23.492188 2.753906 -20.640625 2.753906 -17.152344 C 2.753906 -13.660156 5.570312 -10.808594 9.0625 -10.808594 L 16.714844 -10.808594 C 19.199219 -10.808594 21.246094 -8.792969 21.246094 -6.308594 C 21.246094 -3.824219 19.199219 -1.8125 16.714844 -1.8125 L 9.0625 -1.8125 C 6.578125 -1.8125 4.566406 -3.824219 4.566406 -6.308594 L 2.753906 -6.308594 C 2.753906 -2.820312 5.570312 0 9.0625 0 L 16.714844 0 C 20.203125 0 23.058594 -2.820312 23.058594 -6.308594 C 23.058594 -9.800781 20.203125 -12.652344 16.714844 -12.652344 L 9.0625 -12.652344 C 6.578125 -12.652344 4.566406 -14.667969 4.566406 -17.152344 C 4.566406 -19.632812 6.578125 -21.648438 9.0625 -21.648438 Z M 9.0625 -21.648438 "/></g></g></g><g fill="#5f9d00" fill-opacity="1"><g transform="translate(488.147857, 84.749997)"><g><path d="M 21.246094 -12.652344 L 4.566406 -12.652344 L 4.566406 -23.492188 L 2.753906 -23.492188 L 2.753906 0 L 4.566406 0 L 4.566406 -10.808594 L 21.246094 -10.808594 L 21.246094 0 L 23.058594 0 L 23.058594 -23.492188 L 21.246094 -23.492188 Z M 21.246094 -12.652344 "/></g></g></g><g fill="#5f9d00" fill-opacity="1"><g transform="translate(514.058092, 84.749997)"><g><path d="M 23.058594 -17.152344 C 23.058594 -20.640625 20.203125 -23.492188 16.714844 -23.492188 L 2.753906 -23.492188 L 2.753906 0 L 16.714844 0 C 20.203125 0 23.058594 -2.820312 23.058594 -6.308594 C 23.058594 -8.59375 21.816406 -10.605469 20.003906 -11.746094 C 21.816406 -12.855469 23.058594 -14.867188 23.058594 -17.152344 Z M 21.246094 -6.308594 C 21.246094 -3.824219 19.199219 -1.8125 16.714844 -1.8125 L 4.566406 -1.8125 L 4.566406 -10.808594 L 16.714844 -10.808594 C 19.199219 -10.808594 21.246094 -8.792969 21.246094 -6.308594 Z M 4.566406 -12.652344 L 4.566406 -21.648438 L 16.714844 -21.648438 C 19.199219 -21.648438 21.246094 -19.632812 21.246094 -17.152344 C 21.246094 -14.667969 19.199219 -12.652344 16.714844 -12.652344 Z M 4.566406 -12.652344 "/></g></g></g><g fill="#5f9d00" fill-opacity="1"><g transform="translate(539.968327, 84.749997)"><g><path d="M 14.464844 0 C 20.941406 0 26.210938 -5.269531 26.210938 -11.746094 C 26.210938 -18.222656 20.941406 -23.492188 14.464844 -23.492188 C 8.019531 -23.492188 2.753906 -18.222656 2.753906 -11.746094 C 2.753906 -5.269531 8.019531 0 14.464844 0 Z M 14.464844 -21.648438 C 19.96875 -21.648438 24.398438 -17.21875 24.398438 -11.746094 C 24.398438 -6.242188 19.96875 -1.8125 14.464844 -1.8125 C 8.996094 -1.8125 4.566406 -6.242188 4.566406 -11.746094 C 4.566406 -17.21875 8.996094 -21.648438 14.464844 -21.648438 Z M 14.464844 -21.648438 "/></g></g></g><g fill="#5f9d00" fill-opacity="1"><g transform="translate(568.999869, 84.749997)"><g><path d="M 12.753906 -23.492188 L 2.753906 0 L 4.699219 0 L 6.8125 -4.898438 L 19.902344 -4.898438 L 22.015625 0 L 23.996094 0 L 13.960938 -23.492188 Z M 7.585938 -6.710938 L 13.359375 -20.238281 L 19.128906 -6.710938 Z M 7.585938 -6.710938 "/></g></g></g><g fill="#5f9d00" fill-opacity="1"><g transform="translate(595.816293, 84.749997)"><g><path d="M 24.132812 0 L 14.867188 -10.808594 L 16.714844 -10.808594 C 20.203125 -10.808594 23.058594 -13.660156 23.058594 -17.152344 C 23.058594 -20.640625 20.203125 -23.492188 16.714844 -23.492188 L 2.753906 -23.492188 L 2.753906 0 L 4.566406 0 L 4.566406 -10.808594 L 12.484375 -10.808594 L 21.714844 0 Z M 4.566406 -21.648438 L 16.714844 -21.648438 C 19.199219 -21.648438 21.246094 -19.632812 21.246094 -17.152344 C 21.246094 -14.667969 19.199219 -12.652344 16.714844 -12.652344 L 4.566406 -12.652344 Z M 4.566406 -21.648438 "/></g></g><g transform="translate(622.76698, 84.749997)"><g><path d="M 11.3125 -23.492188 L 2.753906 -23.492188 L 2.753906 0 L 11.3125 0 C 17.789062 0 23.058594 -5.269531 23.058594 -11.746094 C 23.058594 -18.222656 17.789062 -23.492188 11.3125 -23.492188 Z M 11.3125 -1.8125 L 4.566406 -1.8125 L 4.566406 -21.648438 L 11.3125 -21.648438 C 16.78125 -21.648438 21.246094 -17.21875 21.246094 -11.746094 C 21.246094 -6.242188 16.78125 -1.8125 11.3125 -1.8125 Z M 11.3125 -1.8125 "/></g></g></g></svg>