<svg xmlns="http://www.w3.org/2000/svg" xmlns:xlink="http://www.w3.org/1999/xlink" width="550" zoomAndPan="magnify" viewBox="0 0 412.5 149.999998" height="200" preserveAspectRatio="xMidYMid meet" version="1.0"><defs><g/><clipPath id="id1"><path d="M 30.644531 32.902344 L 116.894531 32.902344 L 116.894531 119.152344 L 30.644531 119.152344 Z M 30.644531 32.902344 " clip-rule="nonzero"/></clipPath><clipPath id="id2"><path d="M 34.515625 36.410156 L 112.515625 36.410156 L 112.515625 114.410156 L 34.515625 114.410156 Z M 34.515625 36.410156 " clip-rule="nonzero"/></clipPath><clipPath id="id3"><path d="M 38.148438 40.402344 L 109.398438 40.402344 L 109.398438 111.652344 L 38.148438 111.652344 Z M 38.148438 40.402344 " clip-rule="nonzero"/></clipPath><clipPath id="id4"><path d="M 41.988281 44.246094 L 104.988281 44.246094 L 104.988281 107.246094 L 41.988281 107.246094 Z M 41.988281 44.246094 " clip-rule="nonzero"/></clipPath><clipPath id="id5"><path d="M 46.863281 49.234375 L 103 49.234375 L 103 102.484375 L 46.863281 102.484375 Z M 46.863281 49.234375 " clip-rule="nonzero"/></clipPath></defs><g clip-path="url(#id1)"><path fill="#5f9d00" d="M 73.769531 32.902344 C 49.953125 32.902344 30.644531 52.207031 30.644531 76.027344 C 30.644531 99.84375 49.953125 119.152344 73.769531 119.152344 C 97.585938 119.152344 116.894531 99.84375 116.894531 76.027344 C 116.894531 52.207031 97.585938 32.902344 73.769531 32.902344 " fill-opacity="1" fill-rule="nonzero"/></g><g clip-path="url(#id2)"><path fill="#c2d93c" d="M 73.515625 36.410156 C 51.976562 36.410156 34.515625 53.871094 34.515625 75.410156 C 34.515625 96.949219 51.976562 114.410156 73.515625 114.410156 C 95.054688 114.410156 112.515625 96.949219 112.515625 75.410156 C 112.515625 53.871094 95.054688 36.410156 73.515625 36.410156 " fill-opacity="1" fill-rule="nonzero"/></g><g clip-path="url(#id3)"><path fill="#efdd9c" d="M 73.773438 40.402344 C 54.097656 40.402344 38.148438 56.351562 38.148438 76.027344 C 38.148438 95.703125 54.097656 111.652344 73.773438 111.652344 C 93.445312 111.652344 109.398438 95.703125 109.398438 76.027344 C 109.398438 56.351562 93.445312 40.402344 73.773438 40.402344 " fill-opacity="1" fill-rule="nonzero"/></g><g clip-path="url(#id4)"><path fill="#f9e8b4" d="M 73.488281 44.246094 C 56.09375 44.246094 41.988281 58.347656 41.988281 75.746094 C 41.988281 93.144531 56.09375 107.246094 73.488281 107.246094 C 90.886719 107.246094 104.988281 93.144531 104.988281 75.746094 C 104.988281 58.347656 90.886719 44.246094 73.488281 44.246094 " fill-opacity="1" fill-rule="nonzero"/></g><path fill="#f7bc5c" d="M 83.664062 61.34375 C 87.230469 63.035156 89.761719 67.347656 89.726562 71.140625 C 89.707031 73.578125 88.507812 75.242188 86.019531 74.414062 C 83.878906 73.699219 81.632812 74.125 79.796875 74.839844 C 77.441406 75.757812 75.921875 76.613281 76.144531 77.785156 C 76.710938 80.777344 81.425781 82.046875 84.046875 81.722656 C 86.402344 81.429688 89.929688 82.078125 88.871094 85.25 C 87.878906 88.246094 84.503906 91.390625 81.675781 92.726562 C 77.5625 94.675781 73.855469 93.59375 75.011719 89.636719 C 75.289062 88.6875 75.417969 87.832031 75.421875 87.046875 C 75.433594 85.992188 74.921875 83.859375 74.097656 82.226562 C 71.972656 77.988281 69.511719 80.742188 68.6875 83.804688 C 68.347656 85.058594 68.21875 86.460938 68.003906 88.199219 C 67.894531 89.101562 67.757812 89.832031 67.597656 90.417969 C 66.472656 94.519531 61.613281 91.363281 59.695312 89.535156 C 55.066406 85.128906 54.691406 76.996094 59.726562 78.675781 C 62.394531 79.5625 65.414062 78.988281 67.828125 77.707031 C 73.261719 74.816406 65.917969 72.273438 61.171875 71.695312 C 57.1875 71.210938 55.773438 69.804688 57.351562 66.109375 C 58.085938 64.394531 59.320312 62.8125 60.734375 61.574219 C 62 60.457031 63.410156 59.621094 64.726562 59.195312 C 70.898438 57.214844 70.515625 61.390625 70.445312 65.378906 C 70.417969 66.90625 70.746094 68.683594 71.300781 70.214844 C 72.996094 74.953125 74.742188 73.964844 76.976562 70.480469 C 78.332031 68.363281 78.707031 66.636719 78.769531 63.839844 C 78.835938 61.035156 79.90625 59.566406 83.664062 61.34375 " fill-opacity="1" fill-rule="evenodd"/><g clip-path="url(#id5)"><path fill="#f9e8b4" d="M 90.296875 58.851562 C 85.855469 54.429688 79.726562 51.699219 72.953125 51.699219 C 66.179688 51.699219 60.046875 54.429688 55.609375 58.851562 C 51.171875 63.273438 48.421875 69.382812 48.421875 76.125 C 48.421875 82.871094 51.171875 88.976562 55.609375 93.398438 C 60.046875 97.820312 66.179688 100.550781 72.953125 100.550781 C 79.726562 100.550781 85.855469 97.820312 90.296875 93.398438 C 94.734375 88.976562 97.484375 82.871094 97.484375 76.125 C 97.484375 69.382812 94.734375 63.273438 90.296875 58.851562 Z M 65.890625 101.144531 C 61.523438 99.925781 57.621094 97.601562 54.503906 94.5 C 49.785156 89.796875 46.863281 83.300781 46.863281 76.125 C 46.863281 62.78125 56.464844 52.847656 68.566406 50.199219 C 72.6875 49.296875 76.707031 49.234375 80.449219 49.878906 C 105.359375 54.152344 109.109375 84.78125 90.195312 97.3125 C 87.523438 99.082031 84.425781 100.429688 80.90625 101.226562 C 76.066406 102.320312 70.691406 102.484375 65.890625 101.144531 " fill-opacity="1" fill-rule="nonzero"/></g><g fill="#000000" fill-opacity="1"><g transform="translate(144.596381, 93.143409)"><g><path d="M 39.546875 -37.128906 L 39.546875 -40.292969 L 4.71875 -40.292969 L 4.71875 0 L 7.828125 0 L 7.828125 -18.535156 L 28.320312 -18.535156 L 28.320312 -21.699219 L 7.828125 -21.699219 L 7.828125 -37.128906 Z M 39.546875 -37.128906 "/></g></g></g><g fill="#000000" fill-opacity="1"><g transform="translate(189.034657, 93.143409)"><g><path d="M 39.546875 -37.128906 L 39.546875 -40.292969 L 4.71875 -40.292969 L 4.71875 0 L 39.546875 0 L 39.546875 -3.109375 L 7.828125 -3.109375 L 7.828125 -18.535156 L 28.320312 -18.535156 L 28.320312 -21.699219 L 7.828125 -21.699219 L 7.828125 -37.128906 Z M 39.546875 -37.128906 "/></g></g></g><g fill="#000000" fill-opacity="1"><g transform="translate(233.472932, 93.143409)"><g><path d="M 7.828125 0 L 7.828125 -40.292969 L 4.71875 -40.292969 L 4.71875 0 Z M 7.828125 0 "/></g></g></g><g fill="#000000" fill-opacity="1"><g transform="translate(246.194252, 93.143409)"><g><path d="M 18.132812 0 C 27.746094 0 35.515625 -7.769531 35.515625 -17.382812 L 35.515625 -40.292969 L 32.40625 -40.292969 L 32.40625 -17.382812 C 32.40625 -9.496094 26.019531 -3.109375 18.132812 -3.109375 C 14.277344 -3.109375 10.707031 -4.605469 8 -7.308594 L 6.90625 -8.402344 L 4.71875 -6.160156 L 5.8125 -5.066406 C 9.09375 -1.785156 13.46875 0 18.132812 0 Z M 18.132812 0 "/></g></g></g><g fill="#000000" fill-opacity="1"><g transform="translate(286.545579, 93.143409)"><g><path d="M 24.808594 0 C 35.917969 0 44.957031 -9.039062 44.957031 -20.148438 C 44.957031 -31.257812 35.917969 -40.292969 24.808594 -40.292969 C 13.757812 -40.292969 4.71875 -31.257812 4.71875 -20.148438 C 4.71875 -9.039062 13.757812 0 24.808594 0 Z M 24.808594 -37.128906 C 34.25 -37.128906 41.847656 -29.53125 41.847656 -20.148438 C 41.847656 -10.707031 34.25 -3.109375 24.808594 -3.109375 C 15.425781 -3.109375 7.828125 -10.707031 7.828125 -20.148438 C 7.828125 -29.53125 15.425781 -37.128906 24.808594 -37.128906 Z M 24.808594 -37.128906 "/></g></g></g><g fill="#000000" fill-opacity="1"><g transform="translate(336.33716, 93.143409)"><g><path d="M 21.875 -40.292969 L 4.71875 0 L 8.058594 0 L 11.683594 -8.402344 L 34.132812 -8.402344 L 37.761719 0 L 41.15625 0 L 23.945312 -40.292969 Z M 13.007812 -11.511719 L 22.910156 -34.710938 L 32.8125 -11.511719 Z M 13.007812 -11.511719 "/></g></g></g></svg>