<svg xmlns="http://www.w3.org/2000/svg" xmlns:xlink="http://www.w3.org/1999/xlink" width="300" zoomAndPan="magnify" viewBox="0 0 224.87999 89.999999" height="120" preserveAspectRatio="xMidYMid meet" version="1.0"><defs><g/><clipPath id="id1"><path d="M 23.074219 10.953125 L 91.289062 10.953125 L 91.289062 79.164062 L 23.074219 79.164062 Z M 23.074219 10.953125 " clip-rule="nonzero"/></clipPath><clipPath id="id2"><path d="M 26.140625 13.734375 L 88.359375 13.734375 L 88.359375 75.949219 L 26.140625 75.949219 Z M 26.140625 13.734375 " clip-rule="nonzero"/></clipPath><clipPath id="id3"><path d="M 29.019531 16.894531 L 85.238281 16.894531 L 85.238281 73.117188 L 29.019531 73.117188 Z M 29.019531 16.894531 " clip-rule="nonzero"/></clipPath><clipPath id="id4"><path d="M 32.0625 19.941406 L 82.285156 19.941406 L 82.285156 70.164062 L 32.0625 70.164062 Z M 32.0625 19.941406 " clip-rule="nonzero"/></clipPath><clipPath id="id5"><path d="M 35.925781 24 L 80 24 L 80 65.871094 L 35.925781 65.871094 Z M 35.925781 24 " clip-rule="nonzero"/></clipPath></defs><g clip-path="url(#id1)"><path fill="#5f9d00" d="M 57.183594 10.953125 C 38.34375 10.953125 23.074219 26.222656 23.074219 45.058594 C 23.074219 63.894531 38.34375 79.164062 57.183594 79.164062 C 76.019531 79.164062 91.289062 63.894531 91.289062 45.058594 C 91.289062 26.222656 76.019531 10.953125 57.183594 10.953125 " fill-opacity="1" fill-rule="nonzero"/></g><g clip-path="url(#id2)"><path fill="#c2d93c" d="M 57.25 13.734375 C 40.070312 13.734375 26.140625 27.660156 26.140625 44.84375 C 26.140625 62.023438 40.070312 75.949219 57.25 75.949219 C 74.429688 75.949219 88.359375 62.023438 88.359375 44.84375 C 88.359375 27.660156 74.429688 13.734375 57.25 13.734375 " fill-opacity="1" fill-rule="nonzero"/></g><g clip-path="url(#id3)"><path fill="#efdd9c" d="M 57.128906 16.894531 C 41.605469 16.894531 29.019531 29.480469 29.019531 45.003906 C 29.019531 60.53125 41.605469 73.117188 57.128906 73.117188 C 72.652344 73.117188 85.238281 60.53125 85.238281 45.003906 C 85.238281 29.480469 72.652344 16.894531 57.128906 16.894531 " fill-opacity="1" fill-rule="nonzero"/></g><g clip-path="url(#id4)"><path fill="#f9e8b4" d="M 57.175781 19.941406 C 43.304688 19.941406 32.0625 31.183594 32.0625 45.050781 C 32.0625 58.921875 43.304688 70.164062 57.175781 70.164062 C 71.042969 70.164062 82.285156 58.921875 82.285156 45.050781 C 82.285156 31.183594 71.042969 19.941406 57.175781 19.941406 " fill-opacity="1" fill-rule="nonzero"/></g><path fill="#f7bc5c" d="M 65.171875 33.4375 C 68.007812 34.769531 70.019531 38.171875 69.992188 41.160156 C 69.976562 43.082031 69.019531 44.394531 67.046875 43.742188 C 65.34375 43.179688 63.558594 43.511719 62.097656 44.078125 C 60.226562 44.800781 59.019531 45.476562 59.195312 46.398438 C 59.648438 48.757812 63.394531 49.757812 65.476562 49.503906 C 67.347656 49.273438 70.152344 49.78125 69.3125 52.285156 C 68.519531 54.644531 65.839844 57.121094 63.589844 58.179688 C 60.324219 59.710938 57.378906 58.859375 58.296875 55.742188 C 58.515625 54.996094 58.617188 54.320312 58.621094 53.699219 C 58.632812 52.867188 58.222656 51.1875 57.570312 49.898438 C 55.882812 46.558594 53.925781 48.730469 53.269531 51.144531 C 53 52.132812 52.898438 53.238281 52.726562 54.609375 C 52.636719 55.320312 52.53125 55.894531 52.40625 56.355469 C 51.511719 59.589844 47.648438 57.101562 46.125 55.660156 C 42.445312 52.1875 42.148438 45.777344 46.148438 47.101562 C 48.269531 47.800781 50.667969 47.347656 52.585938 46.339844 C 56.90625 44.058594 51.070312 42.054688 47.296875 41.597656 C 44.132812 41.214844 43.007812 40.109375 44.261719 37.195312 C 44.84375 35.839844 45.828125 34.597656 46.949219 33.617188 C 47.957031 32.738281 49.074219 32.078125 50.121094 31.746094 C 55.027344 30.183594 54.722656 33.476562 54.667969 36.617188 C 54.644531 37.820312 54.90625 39.226562 55.34375 40.433594 C 56.695312 44.167969 58.082031 43.386719 59.855469 40.640625 C 60.9375 38.972656 61.230469 37.613281 61.285156 35.40625 C 61.335938 33.195312 62.1875 32.039062 65.171875 33.4375 " fill-opacity="1" fill-rule="evenodd"/><g clip-path="url(#id5)"><path fill="#f9e8b4" d="M 70.445312 31.472656 C 66.914062 27.988281 62.042969 25.832031 56.660156 25.832031 C 51.277344 25.832031 46.402344 27.988281 42.875 31.472656 C 39.347656 34.957031 37.167969 39.773438 37.167969 45.089844 C 37.167969 50.410156 39.347656 55.222656 42.875 58.707031 C 46.402344 62.191406 51.277344 64.347656 56.660156 64.347656 C 62.042969 64.347656 66.914062 62.191406 70.445312 58.707031 C 73.972656 55.222656 76.152344 50.410156 76.152344 45.089844 C 76.152344 39.773438 73.972656 34.957031 70.445312 31.472656 Z M 51.046875 64.8125 C 47.578125 63.851562 44.476562 62.019531 42 59.574219 C 38.246094 55.867188 35.925781 50.746094 35.925781 45.089844 C 35.925781 34.570312 43.554688 26.742188 53.171875 24.652344 C 56.449219 23.941406 59.644531 23.890625 62.617188 24.398438 C 82.414062 27.769531 85.394531 51.914062 70.359375 61.792969 C 68.238281 63.1875 65.777344 64.25 62.980469 64.875 C 59.132812 65.738281 54.863281 65.871094 51.046875 64.8125 " fill-opacity="1" fill-rule="nonzero"/></g><g fill="#000000" fill-opacity="1"><g transform="translate(130.452848, 37.357847)"><g><path d="M 0.59375 0 L 0.59375 -0.546875 L 1.03125 -0.546875 C 1.675781 -0.546875 2.070312 -0.597656 2.21875 -0.703125 C 2.375 -0.816406 2.453125 -1.050781 2.453125 -1.40625 L 2.453125 -10.828125 C 2.453125 -11.171875 2.375 -11.394531 2.21875 -11.5 C 2.070312 -11.613281 1.675781 -11.671875 1.03125 -11.671875 L 0.59375 -11.671875 L 0.59375 -12.234375 L 10.46875 -12.234375 L 10.96875 -8.1875 L 10.515625 -8.1875 C 10.429688 -8.875 10.335938 -9.410156 10.234375 -9.796875 C 10.128906 -10.179688 9.953125 -10.53125 9.703125 -10.84375 C 9.453125 -11.15625 9.117188 -11.367188 8.703125 -11.484375 C 8.296875 -11.609375 7.757812 -11.671875 7.09375 -11.671875 L 4.921875 -11.671875 C 4.515625 -11.671875 4.265625 -11.628906 4.171875 -11.546875 C 4.085938 -11.460938 4.046875 -11.265625 4.046875 -10.953125 L 4.046875 -6.40625 L 5.59375 -6.40625 C 6.40625 -6.40625 6.925781 -6.550781 7.15625 -6.84375 C 7.382812 -7.132812 7.5 -7.691406 7.5 -8.515625 L 7.953125 -8.515625 L 7.953125 -3.734375 L 7.5 -3.734375 C 7.5 -4.566406 7.382812 -5.125 7.15625 -5.40625 C 6.925781 -5.695312 6.40625 -5.84375 5.59375 -5.84375 L 4.046875 -5.84375 L 4.046875 -1.421875 C 4.046875 -1.171875 4.066406 -0.992188 4.109375 -0.890625 C 4.148438 -0.796875 4.296875 -0.710938 4.546875 -0.640625 C 4.796875 -0.578125 5.195312 -0.546875 5.75 -0.546875 L 6.34375 -0.546875 L 6.34375 0 C 5.914062 -0.03125 4.910156 -0.046875 3.328125 -0.046875 C 1.929688 -0.046875 1.019531 -0.03125 0.59375 0 Z M 0.59375 0 "/></g></g><g transform="translate(142.179988, 37.357847)"><g><path d="M 0.5 -3.953125 C 0.5 -5.085938 0.859375 -6.054688 1.578125 -6.859375 C 2.304688 -7.660156 3.191406 -8.0625 4.234375 -8.0625 C 5.296875 -8.0625 6.097656 -7.71875 6.640625 -7.03125 C 7.191406 -6.34375 7.46875 -5.507812 7.46875 -4.53125 C 7.46875 -4.351562 7.441406 -4.242188 7.390625 -4.203125 C 7.347656 -4.171875 7.222656 -4.15625 7.015625 -4.15625 L 2 -4.15625 C 2 -2.925781 2.175781 -2.023438 2.53125 -1.453125 C 3.039062 -0.648438 3.71875 -0.25 4.5625 -0.25 C 4.675781 -0.25 4.800781 -0.257812 4.9375 -0.28125 C 5.082031 -0.3125 5.300781 -0.375 5.59375 -0.46875 C 5.882812 -0.570312 6.15625 -0.757812 6.40625 -1.03125 C 6.65625 -1.3125 6.851562 -1.671875 7 -2.109375 C 7.03125 -2.273438 7.109375 -2.359375 7.234375 -2.359375 C 7.390625 -2.359375 7.46875 -2.285156 7.46875 -2.140625 C 7.46875 -2.035156 7.410156 -1.863281 7.296875 -1.625 C 7.179688 -1.382812 7.015625 -1.125 6.796875 -0.84375 C 6.578125 -0.570312 6.257812 -0.328125 5.84375 -0.109375 C 5.425781 0.0976562 4.96875 0.203125 4.46875 0.203125 C 3.40625 0.203125 2.476562 -0.195312 1.6875 -1 C 0.894531 -1.800781 0.5 -2.785156 0.5 -3.953125 Z M 2.015625 -4.53125 L 6.28125 -4.53125 C 6.28125 -4.78125 6.253906 -5.046875 6.203125 -5.328125 C 6.160156 -5.609375 6.078125 -5.941406 5.953125 -6.328125 C 5.828125 -6.722656 5.617188 -7.039062 5.328125 -7.28125 C 5.035156 -7.53125 4.671875 -7.65625 4.234375 -7.65625 C 4.046875 -7.65625 3.847656 -7.613281 3.640625 -7.53125 C 3.429688 -7.445312 3.203125 -7.304688 2.953125 -7.109375 C 2.703125 -6.910156 2.488281 -6.585938 2.3125 -6.140625 C 2.132812 -5.691406 2.035156 -5.15625 2.015625 -4.53125 Z M 2.015625 -4.53125 "/></g></g><g transform="translate(150.164984, 37.357847)"><g><path d="M 0.59375 0 L 0.59375 -0.546875 C 1.226562 -0.546875 1.617188 -0.585938 1.765625 -0.671875 C 1.921875 -0.753906 2 -0.988281 2 -1.375 L 2 -6.203125 C 2 -6.648438 1.921875 -6.925781 1.765625 -7.03125 C 1.617188 -7.132812 1.253906 -7.1875 0.671875 -7.1875 L 0.671875 -7.75 L 3.171875 -7.953125 L 3.171875 -1.359375 C 3.171875 -0.992188 3.234375 -0.765625 3.359375 -0.671875 C 3.492188 -0.585938 3.851562 -0.546875 4.4375 -0.546875 L 4.4375 0 C 3.21875 -0.03125 2.597656 -0.046875 2.578125 -0.046875 C 2.410156 -0.046875 1.75 -0.03125 0.59375 0 Z M 1.359375 -11.078125 C 1.359375 -11.316406 1.445312 -11.535156 1.625 -11.734375 C 1.8125 -11.929688 2.035156 -12.03125 2.296875 -12.03125 C 2.566406 -12.03125 2.796875 -11.941406 2.984375 -11.765625 C 3.171875 -11.585938 3.265625 -11.359375 3.265625 -11.078125 C 3.265625 -10.796875 3.171875 -10.566406 2.984375 -10.390625 C 2.796875 -10.210938 2.566406 -10.125 2.296875 -10.125 C 2.023438 -10.125 1.800781 -10.21875 1.625 -10.40625 C 1.445312 -10.601562 1.359375 -10.828125 1.359375 -11.078125 Z M 1.359375 -11.078125 "/></g></g><g transform="translate(155.145724, 37.357847)"><g><path d="M -0.71875 2.25 C -0.71875 2.007812 -0.640625 1.8125 -0.484375 1.65625 C -0.335938 1.5 -0.140625 1.421875 0.109375 1.421875 C 0.359375 1.421875 0.554688 1.5 0.703125 1.65625 C 0.859375 1.8125 0.9375 2.007812 0.9375 2.25 C 0.9375 2.46875 0.867188 2.644531 0.734375 2.78125 C 0.609375 2.914062 0.46875 3.007812 0.3125 3.0625 C 0.613281 3.21875 0.929688 3.296875 1.265625 3.296875 C 1.546875 3.296875 1.78125 3.210938 1.96875 3.046875 C 2.15625 2.878906 2.289062 2.660156 2.375 2.390625 C 2.457031 2.128906 2.515625 1.882812 2.546875 1.65625 C 2.578125 1.425781 2.59375 1.1875 2.59375 0.9375 L 2.59375 -6.1875 C 2.59375 -6.632812 2.503906 -6.910156 2.328125 -7.015625 C 2.160156 -7.128906 1.734375 -7.1875 1.046875 -7.1875 L 1.046875 -7.75 L 3.78125 -7.953125 L 3.78125 0.890625 C 3.78125 1.691406 3.535156 2.359375 3.046875 2.890625 C 2.566406 3.421875 1.988281 3.6875 1.3125 3.6875 C 0.757812 3.6875 0.285156 3.554688 -0.109375 3.296875 C -0.515625 3.046875 -0.71875 2.695312 -0.71875 2.25 Z M 2.15625 -10.390625 C 1.96875 -10.578125 1.875 -10.800781 1.875 -11.0625 C 1.875 -11.332031 1.96875 -11.5625 2.15625 -11.75 C 2.34375 -11.9375 2.566406 -12.03125 2.828125 -12.03125 C 3.085938 -12.03125 3.3125 -11.9375 3.5 -11.75 C 3.6875 -11.5625 3.78125 -11.332031 3.78125 -11.0625 C 3.78125 -10.800781 3.6875 -10.578125 3.5 -10.390625 C 3.3125 -10.210938 3.085938 -10.125 2.828125 -10.125 C 2.566406 -10.125 2.34375 -10.210938 2.15625 -10.390625 Z M 2.15625 -10.390625 "/></g></g><g transform="translate(160.627174, 37.357847)"><g><path d="M 1.6875 -0.96875 C 0.894531 -1.75 0.5 -2.707031 0.5 -3.84375 C 0.5 -4.988281 0.882812 -5.976562 1.65625 -6.8125 C 2.4375 -7.644531 3.382812 -8.0625 4.5 -8.0625 C 5.582031 -8.0625 6.515625 -7.644531 7.296875 -6.8125 C 8.078125 -5.988281 8.46875 -5 8.46875 -3.84375 C 8.46875 -2.71875 8.070312 -1.757812 7.28125 -0.96875 C 6.5 -0.1875 5.566406 0.203125 4.484375 0.203125 C 3.410156 0.203125 2.476562 -0.1875 1.6875 -0.96875 Z M 2 -4 C 2 -2.832031 2.148438 -1.984375 2.453125 -1.453125 C 2.921875 -0.648438 3.601562 -0.25 4.5 -0.25 C 4.9375 -0.25 5.34375 -0.367188 5.71875 -0.609375 C 6.09375 -0.847656 6.382812 -1.171875 6.59375 -1.578125 C 6.851562 -2.109375 6.984375 -2.914062 6.984375 -4 C 6.984375 -5.144531 6.820312 -5.972656 6.5 -6.484375 C 6.03125 -7.265625 5.359375 -7.65625 4.484375 -7.65625 C 4.097656 -7.65625 3.710938 -7.550781 3.328125 -7.34375 C 2.953125 -7.144531 2.648438 -6.847656 2.421875 -6.453125 C 2.140625 -5.921875 2 -5.101562 2 -4 Z M 2 -4 "/></g></g><g transform="translate(169.622373, 37.357847)"><g><path d="M 0.75 -1.71875 C 0.75 -2.726562 1.351562 -3.503906 2.5625 -4.046875 C 3.28125 -4.390625 4.378906 -4.609375 5.859375 -4.703125 L 5.859375 -5.359375 C 5.859375 -6.097656 5.664062 -6.664062 5.28125 -7.0625 C 4.894531 -7.457031 4.453125 -7.65625 3.953125 -7.65625 C 3.078125 -7.65625 2.429688 -7.378906 2.015625 -6.828125 C 2.367188 -6.816406 2.609375 -6.722656 2.734375 -6.546875 C 2.867188 -6.367188 2.9375 -6.1875 2.9375 -6 C 2.9375 -5.757812 2.859375 -5.5625 2.703125 -5.40625 C 2.554688 -5.257812 2.359375 -5.1875 2.109375 -5.1875 C 1.867188 -5.1875 1.664062 -5.257812 1.5 -5.40625 C 1.34375 -5.550781 1.265625 -5.757812 1.265625 -6.03125 C 1.265625 -6.613281 1.53125 -7.097656 2.0625 -7.484375 C 2.59375 -7.867188 3.238281 -8.0625 4 -8.0625 C 4.976562 -8.0625 5.796875 -7.726562 6.453125 -7.0625 C 6.660156 -6.863281 6.8125 -6.628906 6.90625 -6.359375 C 7.007812 -6.097656 7.066406 -5.878906 7.078125 -5.703125 C 7.097656 -5.535156 7.109375 -5.28125 7.109375 -4.9375 L 7.109375 -1.359375 C 7.109375 -1.285156 7.117188 -1.1875 7.140625 -1.0625 C 7.160156 -0.945312 7.222656 -0.816406 7.328125 -0.671875 C 7.441406 -0.523438 7.585938 -0.453125 7.765625 -0.453125 C 8.203125 -0.453125 8.414062 -0.832031 8.40625 -1.59375 L 8.40625 -2.609375 L 8.875 -2.609375 L 8.875 -1.59375 C 8.875 -0.957031 8.703125 -0.515625 8.359375 -0.265625 C 8.023438 -0.015625 7.703125 0.109375 7.390625 0.109375 C 6.992188 0.109375 6.671875 -0.0351562 6.421875 -0.328125 C 6.171875 -0.617188 6.023438 -0.96875 5.984375 -1.375 C 5.804688 -0.914062 5.507812 -0.535156 5.09375 -0.234375 C 4.6875 0.0546875 4.203125 0.203125 3.640625 0.203125 C 3.203125 0.203125 2.78125 0.144531 2.375 0.03125 C 1.96875 -0.0703125 1.59375 -0.273438 1.25 -0.578125 C 0.914062 -0.878906 0.75 -1.257812 0.75 -1.71875 Z M 2.140625 -1.734375 C 2.140625 -1.285156 2.296875 -0.914062 2.609375 -0.625 C 2.929688 -0.34375 3.316406 -0.203125 3.765625 -0.203125 C 4.265625 -0.203125 4.738281 -0.394531 5.1875 -0.78125 C 5.632812 -1.175781 5.859375 -1.753906 5.859375 -2.515625 L 5.859375 -4.328125 C 4.535156 -4.273438 3.582031 -3.984375 3 -3.453125 C 2.425781 -2.921875 2.140625 -2.347656 2.140625 -1.734375 Z M 2.140625 -1.734375 "/></g></g></g><g fill="#000000" fill-opacity="1"><g transform="translate(107.268842, 55.839259)"><g><path d="M 0.234375 0 L 0.234375 -0.234375 C 0.503906 -0.234375 0.664062 -0.25 0.71875 -0.28125 C 0.78125 -0.3125 0.8125 -0.40625 0.8125 -0.5625 L 0.8125 -4.421875 C 0.8125 -4.609375 0.78125 -4.722656 0.71875 -4.765625 C 0.65625 -4.816406 0.492188 -4.84375 0.234375 -4.84375 L 0.234375 -5.0625 L 1.296875 -5.15625 L 1.296875 -2.5625 L 1.3125 -2.5625 C 1.394531 -2.75 1.523438 -2.914062 1.703125 -3.0625 C 1.878906 -3.207031 2.101562 -3.28125 2.375 -3.28125 C 2.75 -3.28125 3.007812 -3.1875 3.15625 -3 C 3.269531 -2.875 3.335938 -2.742188 3.359375 -2.609375 C 3.378906 -2.472656 3.390625 -2.226562 3.390625 -1.875 L 3.390625 -0.453125 C 3.398438 -0.347656 3.441406 -0.285156 3.515625 -0.265625 C 3.597656 -0.242188 3.75 -0.234375 3.96875 -0.234375 L 3.96875 0 C 3.46875 -0.0078125 3.191406 -0.015625 3.140625 -0.015625 C 3.097656 -0.015625 2.816406 -0.0078125 2.296875 0 L 2.296875 -0.234375 C 2.566406 -0.234375 2.726562 -0.25 2.78125 -0.28125 C 2.84375 -0.3125 2.875 -0.40625 2.875 -0.5625 L 2.875 -2.296875 C 2.875 -2.546875 2.835938 -2.742188 2.765625 -2.890625 C 2.691406 -3.035156 2.546875 -3.109375 2.328125 -3.109375 C 2.078125 -3.109375 1.847656 -3 1.640625 -2.78125 C 1.429688 -2.570312 1.328125 -2.285156 1.328125 -1.921875 L 1.328125 -0.5625 C 1.328125 -0.40625 1.359375 -0.3125 1.421875 -0.28125 C 1.484375 -0.25 1.644531 -0.234375 1.90625 -0.234375 L 1.90625 0 C 1.40625 -0.0078125 1.128906 -0.015625 1.078125 -0.015625 C 1.035156 -0.015625 0.753906 -0.0078125 0.234375 0 Z M 0.234375 0 "/></g></g><g transform="translate(111.385179, 55.839259)"><g><path d="M 0.140625 0.921875 C 0.140625 0.816406 0.171875 0.738281 0.234375 0.6875 C 0.296875 0.632812 0.367188 0.609375 0.453125 0.609375 C 0.546875 0.609375 0.617188 0.632812 0.671875 0.6875 C 0.734375 0.738281 0.765625 0.8125 0.765625 0.90625 C 0.765625 1.09375 0.664062 1.195312 0.46875 1.21875 C 0.5625 1.3125 0.679688 1.359375 0.828125 1.359375 C 0.972656 1.359375 1.101562 1.300781 1.21875 1.1875 C 1.34375 1.082031 1.429688 0.976562 1.484375 0.875 C 1.535156 0.769531 1.597656 0.625 1.671875 0.4375 C 1.742188 0.289062 1.804688 0.144531 1.859375 0 L 0.75 -2.703125 C 0.695312 -2.828125 0.632812 -2.898438 0.5625 -2.921875 C 0.488281 -2.953125 0.347656 -2.96875 0.140625 -2.96875 L 0.140625 -3.203125 C 0.359375 -3.179688 0.597656 -3.171875 0.859375 -3.171875 C 1.015625 -3.171875 1.285156 -3.179688 1.671875 -3.203125 L 1.671875 -2.96875 C 1.390625 -2.96875 1.25 -2.90625 1.25 -2.78125 C 1.25 -2.757812 1.265625 -2.710938 1.296875 -2.640625 L 2.125 -0.640625 L 2.875 -2.46875 C 2.90625 -2.539062 2.921875 -2.601562 2.921875 -2.65625 C 2.921875 -2.851562 2.800781 -2.957031 2.5625 -2.96875 L 2.5625 -3.203125 C 2.894531 -3.179688 3.113281 -3.171875 3.21875 -3.171875 C 3.414062 -3.171875 3.597656 -3.179688 3.765625 -3.203125 L 3.765625 -2.96875 C 3.429688 -2.96875 3.203125 -2.8125 3.078125 -2.5 L 1.765625 0.671875 C 1.535156 1.234375 1.222656 1.515625 0.828125 1.515625 C 0.640625 1.515625 0.476562 1.457031 0.34375 1.34375 C 0.207031 1.226562 0.140625 1.085938 0.140625 0.921875 Z M 0.140625 0.921875 "/></g></g><g transform="translate(115.294975, 55.839259)"><g><path d="M 0.203125 1.203125 C 0.472656 1.203125 0.632812 1.1875 0.6875 1.15625 C 0.75 1.125 0.78125 1.03125 0.78125 0.875 L 0.78125 -2.59375 C 0.78125 -2.757812 0.75 -2.863281 0.6875 -2.90625 C 0.632812 -2.945312 0.472656 -2.96875 0.203125 -2.96875 L 0.203125 -3.203125 L 1.28125 -3.28125 L 1.28125 -2.796875 C 1.570312 -3.117188 1.914062 -3.28125 2.3125 -3.28125 C 2.738281 -3.28125 3.101562 -3.113281 3.40625 -2.78125 C 3.707031 -2.457031 3.859375 -2.066406 3.859375 -1.609375 C 3.859375 -1.128906 3.695312 -0.726562 3.375 -0.40625 C 3.050781 -0.0820312 2.660156 0.078125 2.203125 0.078125 C 1.960938 0.078125 1.757812 0.015625 1.59375 -0.109375 C 1.425781 -0.234375 1.328125 -0.34375 1.296875 -0.4375 L 1.296875 0.875 C 1.296875 1.03125 1.328125 1.125 1.390625 1.15625 C 1.453125 1.1875 1.613281 1.203125 1.875 1.203125 L 1.875 1.4375 C 1.351562 1.425781 1.078125 1.421875 1.046875 1.421875 C 0.992188 1.421875 0.710938 1.425781 0.203125 1.4375 Z M 1.296875 -0.84375 C 1.296875 -0.769531 1.300781 -0.71875 1.3125 -0.6875 C 1.320312 -0.664062 1.351562 -0.613281 1.40625 -0.53125 C 1.601562 -0.226562 1.859375 -0.078125 2.171875 -0.078125 C 2.171875 -0.078125 2.175781 -0.078125 2.1875 -0.078125 C 2.46875 -0.078125 2.710938 -0.222656 2.921875 -0.515625 C 3.140625 -0.804688 3.25 -1.171875 3.25 -1.609375 C 3.25 -2.015625 3.148438 -2.363281 2.953125 -2.65625 C 2.753906 -2.945312 2.519531 -3.09375 2.25 -3.09375 C 2.0625 -3.09375 1.878906 -3.039062 1.703125 -2.9375 C 1.535156 -2.832031 1.398438 -2.6875 1.296875 -2.5 Z M 1.296875 -0.84375 "/></g></g><g transform="translate(119.411312, 55.839259)"><g><path d="M 0.203125 -1.640625 C 0.203125 -2.097656 0.351562 -2.492188 0.65625 -2.828125 C 0.957031 -3.160156 1.320312 -3.328125 1.75 -3.328125 C 2.1875 -3.328125 2.515625 -3.1875 2.734375 -2.90625 C 2.960938 -2.625 3.078125 -2.28125 3.078125 -1.875 C 3.078125 -1.789062 3.066406 -1.742188 3.046875 -1.734375 C 3.023438 -1.722656 2.972656 -1.71875 2.890625 -1.71875 L 0.828125 -1.71875 C 0.828125 -1.207031 0.898438 -0.835938 1.046875 -0.609375 C 1.253906 -0.273438 1.535156 -0.109375 1.890625 -0.109375 C 1.929688 -0.109375 1.976562 -0.113281 2.03125 -0.125 C 2.09375 -0.132812 2.179688 -0.160156 2.296875 -0.203125 C 2.421875 -0.242188 2.535156 -0.320312 2.640625 -0.4375 C 2.742188 -0.550781 2.828125 -0.695312 2.890625 -0.875 C 2.898438 -0.9375 2.929688 -0.96875 2.984375 -0.96875 C 3.046875 -0.96875 3.078125 -0.941406 3.078125 -0.890625 C 3.078125 -0.835938 3.050781 -0.765625 3 -0.671875 C 2.957031 -0.578125 2.890625 -0.46875 2.796875 -0.34375 C 2.710938 -0.226562 2.582031 -0.128906 2.40625 -0.046875 C 2.238281 0.0351562 2.050781 0.078125 1.84375 0.078125 C 1.40625 0.078125 1.019531 -0.0820312 0.6875 -0.40625 C 0.363281 -0.738281 0.203125 -1.148438 0.203125 -1.640625 Z M 0.828125 -1.875 L 2.59375 -1.875 C 2.59375 -1.976562 2.582031 -2.085938 2.5625 -2.203125 C 2.539062 -2.316406 2.503906 -2.453125 2.453125 -2.609375 C 2.398438 -2.773438 2.3125 -2.90625 2.1875 -3 C 2.070312 -3.101562 1.925781 -3.15625 1.75 -3.15625 C 1.664062 -3.15625 1.582031 -3.140625 1.5 -3.109375 C 1.414062 -3.078125 1.320312 -3.019531 1.21875 -2.9375 C 1.113281 -2.851562 1.023438 -2.71875 0.953125 -2.53125 C 0.878906 -2.34375 0.835938 -2.125 0.828125 -1.875 Z M 0.828125 -1.875 "/></g></g><g transform="translate(122.705107, 55.839259)"><g><path d="M 0.203125 0 L 0.203125 -0.234375 C 0.472656 -0.234375 0.632812 -0.25 0.6875 -0.28125 C 0.75 -0.3125 0.78125 -0.40625 0.78125 -0.5625 L 0.78125 -2.5625 C 0.78125 -2.738281 0.75 -2.847656 0.6875 -2.890625 C 0.625 -2.941406 0.460938 -2.96875 0.203125 -2.96875 L 0.203125 -3.203125 L 1.234375 -3.28125 L 1.234375 -2.46875 C 1.304688 -2.675781 1.414062 -2.863281 1.5625 -3.03125 C 1.71875 -3.195312 1.914062 -3.28125 2.15625 -3.28125 C 2.3125 -3.28125 2.441406 -3.234375 2.546875 -3.140625 C 2.648438 -3.054688 2.703125 -2.953125 2.703125 -2.828125 C 2.703125 -2.710938 2.664062 -2.628906 2.59375 -2.578125 C 2.53125 -2.523438 2.457031 -2.5 2.375 -2.5 C 2.289062 -2.5 2.21875 -2.523438 2.15625 -2.578125 C 2.09375 -2.640625 2.0625 -2.71875 2.0625 -2.8125 C 2.0625 -2.875 2.070312 -2.925781 2.09375 -2.96875 C 2.125 -3.019531 2.148438 -3.054688 2.171875 -3.078125 C 2.191406 -3.097656 2.210938 -3.109375 2.234375 -3.109375 C 2.222656 -3.109375 2.195312 -3.109375 2.15625 -3.109375 C 1.882812 -3.109375 1.671875 -2.972656 1.515625 -2.703125 C 1.359375 -2.429688 1.28125 -2.101562 1.28125 -1.71875 L 1.28125 -0.578125 C 1.28125 -0.429688 1.304688 -0.335938 1.359375 -0.296875 C 1.421875 -0.253906 1.582031 -0.234375 1.84375 -0.234375 L 2 -0.234375 L 2 0 C 1.800781 -0.0078125 1.484375 -0.015625 1.046875 -0.015625 C 0.992188 -0.015625 0.921875 -0.015625 0.828125 -0.015625 C 0.734375 -0.015625 0.625 -0.0078125 0.5 0 C 0.375 0 0.273438 0 0.203125 0 Z M 0.203125 0 "/></g></g><g transform="translate(125.603936, 55.839259)"><g><path d="M 0.203125 1.203125 C 0.472656 1.203125 0.632812 1.1875 0.6875 1.15625 C 0.75 1.125 0.78125 1.03125 0.78125 0.875 L 0.78125 -2.59375 C 0.78125 -2.757812 0.75 -2.863281 0.6875 -2.90625 C 0.632812 -2.945312 0.472656 -2.96875 0.203125 -2.96875 L 0.203125 -3.203125 L 1.28125 -3.28125 L 1.28125 -2.796875 C 1.570312 -3.117188 1.914062 -3.28125 2.3125 -3.28125 C 2.738281 -3.28125 3.101562 -3.113281 3.40625 -2.78125 C 3.707031 -2.457031 3.859375 -2.066406 3.859375 -1.609375 C 3.859375 -1.128906 3.695312 -0.726562 3.375 -0.40625 C 3.050781 -0.0820312 2.660156 0.078125 2.203125 0.078125 C 1.960938 0.078125 1.757812 0.015625 1.59375 -0.109375 C 1.425781 -0.234375 1.328125 -0.34375 1.296875 -0.4375 L 1.296875 0.875 C 1.296875 1.03125 1.328125 1.125 1.390625 1.15625 C 1.453125 1.1875 1.613281 1.203125 1.875 1.203125 L 1.875 1.4375 C 1.351562 1.425781 1.078125 1.421875 1.046875 1.421875 C 0.992188 1.421875 0.710938 1.425781 0.203125 1.4375 Z M 1.296875 -0.84375 C 1.296875 -0.769531 1.300781 -0.71875 1.3125 -0.6875 C 1.320312 -0.664062 1.351562 -0.613281 1.40625 -0.53125 C 1.601562 -0.226562 1.859375 -0.078125 2.171875 -0.078125 C 2.171875 -0.078125 2.175781 -0.078125 2.1875 -0.078125 C 2.46875 -0.078125 2.710938 -0.222656 2.921875 -0.515625 C 3.140625 -0.804688 3.25 -1.171875 3.25 -1.609375 C 3.25 -2.015625 3.148438 -2.363281 2.953125 -2.65625 C 2.753906 -2.945312 2.519531 -3.09375 2.25 -3.09375 C 2.0625 -3.09375 1.878906 -3.039062 1.703125 -2.9375 C 1.535156 -2.832031 1.398438 -2.6875 1.296875 -2.5 Z M 1.296875 -0.84375 "/></g></g><g transform="translate(129.720273, 55.839259)"><g><path d="M 0.3125 -0.703125 C 0.3125 -1.128906 0.554688 -1.453125 1.046875 -1.671875 C 1.347656 -1.816406 1.804688 -1.90625 2.421875 -1.9375 L 2.421875 -2.203125 C 2.421875 -2.515625 2.335938 -2.75 2.171875 -2.90625 C 2.015625 -3.070312 1.835938 -3.15625 1.640625 -3.15625 C 1.273438 -3.15625 1.003906 -3.039062 0.828125 -2.8125 C 0.972656 -2.8125 1.070312 -2.773438 1.125 -2.703125 C 1.175781 -2.628906 1.203125 -2.554688 1.203125 -2.484375 C 1.203125 -2.378906 1.171875 -2.296875 1.109375 -2.234375 C 1.054688 -2.171875 0.976562 -2.140625 0.875 -2.140625 C 0.769531 -2.140625 0.6875 -2.171875 0.625 -2.234375 C 0.5625 -2.296875 0.53125 -2.378906 0.53125 -2.484375 C 0.53125 -2.722656 0.640625 -2.921875 0.859375 -3.078125 C 1.078125 -3.242188 1.34375 -3.328125 1.65625 -3.328125 C 2.050781 -3.328125 2.382812 -3.191406 2.65625 -2.921875 C 2.75 -2.835938 2.816406 -2.738281 2.859375 -2.625 C 2.898438 -2.519531 2.921875 -2.429688 2.921875 -2.359375 C 2.929688 -2.285156 2.9375 -2.179688 2.9375 -2.046875 L 2.9375 -0.5625 C 2.9375 -0.53125 2.9375 -0.488281 2.9375 -0.4375 C 2.945312 -0.394531 2.972656 -0.34375 3.015625 -0.28125 C 3.066406 -0.21875 3.128906 -0.1875 3.203125 -0.1875 C 3.378906 -0.1875 3.46875 -0.34375 3.46875 -0.65625 L 3.46875 -1.078125 L 3.65625 -1.078125 L 3.65625 -0.65625 C 3.65625 -0.394531 3.585938 -0.210938 3.453125 -0.109375 C 3.316406 -0.00390625 3.179688 0.046875 3.046875 0.046875 C 2.890625 0.046875 2.757812 -0.0078125 2.65625 -0.125 C 2.550781 -0.25 2.488281 -0.394531 2.46875 -0.5625 C 2.394531 -0.375 2.269531 -0.21875 2.09375 -0.09375 C 1.925781 0.0195312 1.726562 0.078125 1.5 0.078125 C 1.320312 0.078125 1.148438 0.0546875 0.984375 0.015625 C 0.816406 -0.0234375 0.660156 -0.109375 0.515625 -0.234375 C 0.378906 -0.359375 0.3125 -0.515625 0.3125 -0.703125 Z M 0.890625 -0.71875 C 0.890625 -0.53125 0.953125 -0.375 1.078125 -0.25 C 1.210938 -0.132812 1.367188 -0.078125 1.546875 -0.078125 C 1.753906 -0.078125 1.953125 -0.15625 2.140625 -0.3125 C 2.328125 -0.476562 2.421875 -0.722656 2.421875 -1.046875 L 2.421875 -1.78125 C 1.867188 -1.757812 1.472656 -1.640625 1.234375 -1.421875 C 1.003906 -1.203125 0.890625 -0.96875 0.890625 -0.71875 Z M 0.890625 -0.71875 "/></g></g><g transform="translate(133.430774, 55.839259)"><g><path d="M 0.203125 0 L 0.203125 -0.234375 C 0.472656 -0.234375 0.632812 -0.25 0.6875 -0.28125 C 0.75 -0.3125 0.78125 -0.40625 0.78125 -0.5625 L 0.78125 -2.5625 C 0.78125 -2.738281 0.75 -2.847656 0.6875 -2.890625 C 0.625 -2.941406 0.460938 -2.96875 0.203125 -2.96875 L 0.203125 -3.203125 L 1.234375 -3.28125 L 1.234375 -2.46875 C 1.304688 -2.675781 1.414062 -2.863281 1.5625 -3.03125 C 1.71875 -3.195312 1.914062 -3.28125 2.15625 -3.28125 C 2.3125 -3.28125 2.441406 -3.234375 2.546875 -3.140625 C 2.648438 -3.054688 2.703125 -2.953125 2.703125 -2.828125 C 2.703125 -2.710938 2.664062 -2.628906 2.59375 -2.578125 C 2.53125 -2.523438 2.457031 -2.5 2.375 -2.5 C 2.289062 -2.5 2.21875 -2.523438 2.15625 -2.578125 C 2.09375 -2.640625 2.0625 -2.71875 2.0625 -2.8125 C 2.0625 -2.875 2.070312 -2.925781 2.09375 -2.96875 C 2.125 -3.019531 2.148438 -3.054688 2.171875 -3.078125 C 2.191406 -3.097656 2.210938 -3.109375 2.234375 -3.109375 C 2.222656 -3.109375 2.195312 -3.109375 2.15625 -3.109375 C 1.882812 -3.109375 1.671875 -2.972656 1.515625 -2.703125 C 1.359375 -2.429688 1.28125 -2.101562 1.28125 -1.71875 L 1.28125 -0.578125 C 1.28125 -0.429688 1.304688 -0.335938 1.359375 -0.296875 C 1.421875 -0.253906 1.582031 -0.234375 1.84375 -0.234375 L 2 -0.234375 L 2 0 C 1.800781 -0.0078125 1.484375 -0.015625 1.046875 -0.015625 C 0.992188 -0.015625 0.921875 -0.015625 0.828125 -0.015625 C 0.734375 -0.015625 0.625 -0.0078125 0.5 0 C 0.375 0 0.273438 0 0.203125 0 Z M 0.203125 0 "/></g></g><g transform="translate(136.329603, 55.839259)"><g><path d="M 0.3125 -0.703125 C 0.3125 -1.128906 0.554688 -1.453125 1.046875 -1.671875 C 1.347656 -1.816406 1.804688 -1.90625 2.421875 -1.9375 L 2.421875 -2.203125 C 2.421875 -2.515625 2.335938 -2.75 2.171875 -2.90625 C 2.015625 -3.070312 1.835938 -3.15625 1.640625 -3.15625 C 1.273438 -3.15625 1.003906 -3.039062 0.828125 -2.8125 C 0.972656 -2.8125 1.070312 -2.773438 1.125 -2.703125 C 1.175781 -2.628906 1.203125 -2.554688 1.203125 -2.484375 C 1.203125 -2.378906 1.171875 -2.296875 1.109375 -2.234375 C 1.054688 -2.171875 0.976562 -2.140625 0.875 -2.140625 C 0.769531 -2.140625 0.6875 -2.171875 0.625 -2.234375 C 0.5625 -2.296875 0.53125 -2.378906 0.53125 -2.484375 C 0.53125 -2.722656 0.640625 -2.921875 0.859375 -3.078125 C 1.078125 -3.242188 1.34375 -3.328125 1.65625 -3.328125 C 2.050781 -3.328125 2.382812 -3.191406 2.65625 -2.921875 C 2.75 -2.835938 2.816406 -2.738281 2.859375 -2.625 C 2.898438 -2.519531 2.921875 -2.429688 2.921875 -2.359375 C 2.929688 -2.285156 2.9375 -2.179688 2.9375 -2.046875 L 2.9375 -0.5625 C 2.9375 -0.53125 2.9375 -0.488281 2.9375 -0.4375 C 2.945312 -0.394531 2.972656 -0.34375 3.015625 -0.28125 C 3.066406 -0.21875 3.128906 -0.1875 3.203125 -0.1875 C 3.378906 -0.1875 3.46875 -0.34375 3.46875 -0.65625 L 3.46875 -1.078125 L 3.65625 -1.078125 L 3.65625 -0.65625 C 3.65625 -0.394531 3.585938 -0.210938 3.453125 -0.109375 C 3.316406 -0.00390625 3.179688 0.046875 3.046875 0.046875 C 2.890625 0.046875 2.757812 -0.0078125 2.65625 -0.125 C 2.550781 -0.25 2.488281 -0.394531 2.46875 -0.5625 C 2.394531 -0.375 2.269531 -0.21875 2.09375 -0.09375 C 1.925781 0.0195312 1.726562 0.078125 1.5 0.078125 C 1.320312 0.078125 1.148438 0.0546875 0.984375 0.015625 C 0.816406 -0.0234375 0.660156 -0.109375 0.515625 -0.234375 C 0.378906 -0.359375 0.3125 -0.515625 0.3125 -0.703125 Z M 0.890625 -0.71875 C 0.890625 -0.53125 0.953125 -0.375 1.078125 -0.25 C 1.210938 -0.132812 1.367188 -0.078125 1.546875 -0.078125 C 1.753906 -0.078125 1.953125 -0.15625 2.140625 -0.3125 C 2.328125 -0.476562 2.421875 -0.722656 2.421875 -1.046875 L 2.421875 -1.78125 C 1.867188 -1.757812 1.472656 -1.640625 1.234375 -1.421875 C 1.003906 -1.203125 0.890625 -0.96875 0.890625 -0.71875 Z M 0.890625 -0.71875 "/></g></g><g transform="translate(140.040104, 55.839259)"><g><path d="M 0.234375 0 L 0.234375 -0.234375 C 0.503906 -0.234375 0.664062 -0.25 0.71875 -0.28125 C 0.78125 -0.3125 0.8125 -0.40625 0.8125 -0.5625 L 0.8125 -2.5625 C 0.8125 -2.738281 0.78125 -2.847656 0.71875 -2.890625 C 0.65625 -2.941406 0.492188 -2.96875 0.234375 -2.96875 L 0.234375 -3.203125 L 1.28125 -3.28125 L 1.28125 -2.5 C 1.507812 -3.019531 1.875 -3.28125 2.375 -3.28125 C 2.957031 -3.28125 3.289062 -3.039062 3.375 -2.5625 C 3.457031 -2.75 3.585938 -2.914062 3.765625 -3.0625 C 3.941406 -3.207031 4.171875 -3.28125 4.453125 -3.28125 C 4.816406 -3.28125 5.070312 -3.1875 5.21875 -3 C 5.332031 -2.875 5.398438 -2.742188 5.421875 -2.609375 C 5.441406 -2.472656 5.453125 -2.226562 5.453125 -1.875 L 5.453125 -0.453125 C 5.460938 -0.347656 5.503906 -0.285156 5.578125 -0.265625 C 5.660156 -0.242188 5.8125 -0.234375 6.03125 -0.234375 L 6.03125 0 C 5.53125 -0.0078125 5.253906 -0.015625 5.203125 -0.015625 C 5.160156 -0.015625 4.878906 -0.0078125 4.359375 0 L 4.359375 -0.234375 C 4.628906 -0.234375 4.789062 -0.25 4.84375 -0.28125 C 4.90625 -0.3125 4.9375 -0.40625 4.9375 -0.5625 L 4.9375 -2.296875 C 4.9375 -2.546875 4.898438 -2.742188 4.828125 -2.890625 C 4.753906 -3.035156 4.609375 -3.109375 4.390625 -3.109375 C 4.140625 -3.109375 3.910156 -3 3.703125 -2.78125 C 3.492188 -2.570312 3.390625 -2.285156 3.390625 -1.921875 L 3.390625 -0.5625 C 3.390625 -0.40625 3.421875 -0.3125 3.484375 -0.28125 C 3.546875 -0.25 3.707031 -0.234375 3.96875 -0.234375 L 3.96875 0 C 3.46875 -0.0078125 3.191406 -0.015625 3.140625 -0.015625 C 3.097656 -0.015625 2.816406 -0.0078125 2.296875 0 L 2.296875 -0.234375 C 2.566406 -0.234375 2.726562 -0.25 2.78125 -0.28125 C 2.84375 -0.3125 2.875 -0.40625 2.875 -0.5625 L 2.875 -2.296875 C 2.875 -2.546875 2.835938 -2.742188 2.765625 -2.890625 C 2.691406 -3.035156 2.546875 -3.109375 2.328125 -3.109375 C 2.078125 -3.109375 1.847656 -3 1.640625 -2.78125 C 1.429688 -2.570312 1.328125 -2.285156 1.328125 -1.921875 L 1.328125 -0.5625 C 1.328125 -0.40625 1.359375 -0.3125 1.421875 -0.28125 C 1.484375 -0.25 1.644531 -0.234375 1.90625 -0.234375 L 1.90625 0 C 1.40625 -0.0078125 1.128906 -0.015625 1.078125 -0.015625 C 1.035156 -0.015625 0.753906 -0.0078125 0.234375 0 Z M 0.234375 0 "/></g></g><g transform="translate(146.218233, 55.839259)"><g><path d="M 0.203125 -1.640625 C 0.203125 -2.097656 0.351562 -2.492188 0.65625 -2.828125 C 0.957031 -3.160156 1.320312 -3.328125 1.75 -3.328125 C 2.1875 -3.328125 2.515625 -3.1875 2.734375 -2.90625 C 2.960938 -2.625 3.078125 -2.28125 3.078125 -1.875 C 3.078125 -1.789062 3.066406 -1.742188 3.046875 -1.734375 C 3.023438 -1.722656 2.972656 -1.71875 2.890625 -1.71875 L 0.828125 -1.71875 C 0.828125 -1.207031 0.898438 -0.835938 1.046875 -0.609375 C 1.253906 -0.273438 1.535156 -0.109375 1.890625 -0.109375 C 1.929688 -0.109375 1.976562 -0.113281 2.03125 -0.125 C 2.09375 -0.132812 2.179688 -0.160156 2.296875 -0.203125 C 2.421875 -0.242188 2.535156 -0.320312 2.640625 -0.4375 C 2.742188 -0.550781 2.828125 -0.695312 2.890625 -0.875 C 2.898438 -0.9375 2.929688 -0.96875 2.984375 -0.96875 C 3.046875 -0.96875 3.078125 -0.941406 3.078125 -0.890625 C 3.078125 -0.835938 3.050781 -0.765625 3 -0.671875 C 2.957031 -0.578125 2.890625 -0.46875 2.796875 -0.34375 C 2.710938 -0.226562 2.582031 -0.128906 2.40625 -0.046875 C 2.238281 0.0351562 2.050781 0.078125 1.84375 0.078125 C 1.40625 0.078125 1.019531 -0.0820312 0.6875 -0.40625 C 0.363281 -0.738281 0.203125 -1.148438 0.203125 -1.640625 Z M 0.828125 -1.875 L 2.59375 -1.875 C 2.59375 -1.976562 2.582031 -2.085938 2.5625 -2.203125 C 2.539062 -2.316406 2.503906 -2.453125 2.453125 -2.609375 C 2.398438 -2.773438 2.3125 -2.90625 2.1875 -3 C 2.070312 -3.101562 1.925781 -3.15625 1.75 -3.15625 C 1.664062 -3.15625 1.582031 -3.140625 1.5 -3.109375 C 1.414062 -3.078125 1.320312 -3.019531 1.21875 -2.9375 C 1.113281 -2.851562 1.023438 -2.71875 0.953125 -2.53125 C 0.878906 -2.34375 0.835938 -2.125 0.828125 -1.875 Z M 0.828125 -1.875 "/></g></g><g transform="translate(149.512028, 55.839259)"><g><path d="M 0.140625 -2.96875 L 0.140625 -3.125 C 0.367188 -3.132812 0.554688 -3.21875 0.703125 -3.375 C 0.859375 -3.539062 0.960938 -3.722656 1.015625 -3.921875 C 1.066406 -4.117188 1.09375 -4.332031 1.09375 -4.5625 L 1.28125 -4.5625 L 1.28125 -3.203125 L 2.34375 -3.203125 L 2.34375 -2.96875 L 1.28125 -2.96875 L 1.28125 -0.90625 C 1.28125 -0.375 1.445312 -0.109375 1.78125 -0.109375 C 1.925781 -0.109375 2.046875 -0.179688 2.140625 -0.328125 C 2.234375 -0.472656 2.28125 -0.675781 2.28125 -0.9375 L 2.28125 -1.34375 L 2.46875 -1.34375 L 2.46875 -0.921875 C 2.46875 -0.648438 2.40625 -0.414062 2.28125 -0.21875 C 2.15625 -0.0195312 1.972656 0.078125 1.734375 0.078125 C 1.640625 0.078125 1.546875 0.0664062 1.453125 0.046875 C 1.367188 0.0234375 1.269531 -0.0078125 1.15625 -0.0625 C 1.039062 -0.125 0.945312 -0.226562 0.875 -0.375 C 0.800781 -0.53125 0.765625 -0.710938 0.765625 -0.921875 L 0.765625 -2.96875 Z M 0.140625 -2.96875 "/></g></g><g transform="translate(152.389116, 55.839259)"><g><path d="M 0.203125 -1.640625 C 0.203125 -2.097656 0.351562 -2.492188 0.65625 -2.828125 C 0.957031 -3.160156 1.320312 -3.328125 1.75 -3.328125 C 2.1875 -3.328125 2.515625 -3.1875 2.734375 -2.90625 C 2.960938 -2.625 3.078125 -2.28125 3.078125 -1.875 C 3.078125 -1.789062 3.066406 -1.742188 3.046875 -1.734375 C 3.023438 -1.722656 2.972656 -1.71875 2.890625 -1.71875 L 0.828125 -1.71875 C 0.828125 -1.207031 0.898438 -0.835938 1.046875 -0.609375 C 1.253906 -0.273438 1.535156 -0.109375 1.890625 -0.109375 C 1.929688 -0.109375 1.976562 -0.113281 2.03125 -0.125 C 2.09375 -0.132812 2.179688 -0.160156 2.296875 -0.203125 C 2.421875 -0.242188 2.535156 -0.320312 2.640625 -0.4375 C 2.742188 -0.550781 2.828125 -0.695312 2.890625 -0.875 C 2.898438 -0.9375 2.929688 -0.96875 2.984375 -0.96875 C 3.046875 -0.96875 3.078125 -0.941406 3.078125 -0.890625 C 3.078125 -0.835938 3.050781 -0.765625 3 -0.671875 C 2.957031 -0.578125 2.890625 -0.46875 2.796875 -0.34375 C 2.710938 -0.226562 2.582031 -0.128906 2.40625 -0.046875 C 2.238281 0.0351562 2.050781 0.078125 1.84375 0.078125 C 1.40625 0.078125 1.019531 -0.0820312 0.6875 -0.40625 C 0.363281 -0.738281 0.203125 -1.148438 0.203125 -1.640625 Z M 0.828125 -1.875 L 2.59375 -1.875 C 2.59375 -1.976562 2.582031 -2.085938 2.5625 -2.203125 C 2.539062 -2.316406 2.503906 -2.453125 2.453125 -2.609375 C 2.398438 -2.773438 2.3125 -2.90625 2.1875 -3 C 2.070312 -3.101562 1.925781 -3.15625 1.75 -3.15625 C 1.664062 -3.15625 1.582031 -3.140625 1.5 -3.109375 C 1.414062 -3.078125 1.320312 -3.019531 1.21875 -2.9375 C 1.113281 -2.851562 1.023438 -2.71875 0.953125 -2.53125 C 0.878906 -2.34375 0.835938 -2.125 0.828125 -1.875 Z M 0.828125 -1.875 "/></g></g><g transform="translate(155.68291, 55.839259)"><g><path d="M 0.203125 0 L 0.203125 -0.234375 C 0.472656 -0.234375 0.632812 -0.25 0.6875 -0.28125 C 0.75 -0.3125 0.78125 -0.40625 0.78125 -0.5625 L 0.78125 -2.5625 C 0.78125 -2.738281 0.75 -2.847656 0.6875 -2.890625 C 0.625 -2.941406 0.460938 -2.96875 0.203125 -2.96875 L 0.203125 -3.203125 L 1.234375 -3.28125 L 1.234375 -2.46875 C 1.304688 -2.675781 1.414062 -2.863281 1.5625 -3.03125 C 1.71875 -3.195312 1.914062 -3.28125 2.15625 -3.28125 C 2.3125 -3.28125 2.441406 -3.234375 2.546875 -3.140625 C 2.648438 -3.054688 2.703125 -2.953125 2.703125 -2.828125 C 2.703125 -2.710938 2.664062 -2.628906 2.59375 -2.578125 C 2.53125 -2.523438 2.457031 -2.5 2.375 -2.5 C 2.289062 -2.5 2.21875 -2.523438 2.15625 -2.578125 C 2.09375 -2.640625 2.0625 -2.71875 2.0625 -2.8125 C 2.0625 -2.875 2.070312 -2.925781 2.09375 -2.96875 C 2.125 -3.019531 2.148438 -3.054688 2.171875 -3.078125 C 2.191406 -3.097656 2.210938 -3.109375 2.234375 -3.109375 C 2.222656 -3.109375 2.195312 -3.109375 2.15625 -3.109375 C 1.882812 -3.109375 1.671875 -2.972656 1.515625 -2.703125 C 1.359375 -2.429688 1.28125 -2.101562 1.28125 -1.71875 L 1.28125 -0.578125 C 1.28125 -0.429688 1.304688 -0.335938 1.359375 -0.296875 C 1.421875 -0.253906 1.582031 -0.234375 1.84375 -0.234375 L 2 -0.234375 L 2 0 C 1.800781 -0.0078125 1.484375 -0.015625 1.046875 -0.015625 C 0.992188 -0.015625 0.921875 -0.015625 0.828125 -0.015625 C 0.734375 -0.015625 0.625 -0.0078125 0.5 0 C 0.375 0 0.273438 0 0.203125 0 Z M 0.203125 0 "/></g></g><g transform="translate(158.581739, 55.839259)"><g/></g><g transform="translate(161.049367, 55.839259)"><g><path d="M 0.6875 -0.40625 C 0.363281 -0.726562 0.203125 -1.125 0.203125 -1.59375 C 0.203125 -2.0625 0.363281 -2.46875 0.6875 -2.8125 C 1.007812 -3.15625 1.398438 -3.328125 1.859375 -3.328125 C 2.304688 -3.328125 2.691406 -3.15625 3.015625 -2.8125 C 3.335938 -2.46875 3.5 -2.0625 3.5 -1.59375 C 3.5 -1.125 3.332031 -0.726562 3 -0.40625 C 2.675781 -0.0820312 2.289062 0.078125 1.84375 0.078125 C 1.40625 0.078125 1.019531 -0.0820312 0.6875 -0.40625 Z M 0.828125 -1.65625 C 0.828125 -1.164062 0.890625 -0.816406 1.015625 -0.609375 C 1.203125 -0.273438 1.484375 -0.109375 1.859375 -0.109375 C 2.035156 -0.109375 2.203125 -0.15625 2.359375 -0.25 C 2.515625 -0.351562 2.632812 -0.488281 2.71875 -0.65625 C 2.820312 -0.875 2.875 -1.207031 2.875 -1.65625 C 2.875 -2.125 2.8125 -2.460938 2.6875 -2.671875 C 2.488281 -2.992188 2.207031 -3.15625 1.84375 -3.15625 C 1.6875 -3.15625 1.53125 -3.113281 1.375 -3.03125 C 1.21875 -2.945312 1.09375 -2.820312 1 -2.65625 C 0.882812 -2.445312 0.828125 -2.113281 0.828125 -1.65625 Z M 0.828125 -1.65625 "/></g></g><g transform="translate(164.759868, 55.839259)"><g><path d="M 0.203125 1.203125 C 0.472656 1.203125 0.632812 1.1875 0.6875 1.15625 C 0.75 1.125 0.78125 1.03125 0.78125 0.875 L 0.78125 -2.59375 C 0.78125 -2.757812 0.75 -2.863281 0.6875 -2.90625 C 0.632812 -2.945312 0.472656 -2.96875 0.203125 -2.96875 L 0.203125 -3.203125 L 1.28125 -3.28125 L 1.28125 -2.796875 C 1.570312 -3.117188 1.914062 -3.28125 2.3125 -3.28125 C 2.738281 -3.28125 3.101562 -3.113281 3.40625 -2.78125 C 3.707031 -2.457031 3.859375 -2.066406 3.859375 -1.609375 C 3.859375 -1.128906 3.695312 -0.726562 3.375 -0.40625 C 3.050781 -0.0820312 2.660156 0.078125 2.203125 0.078125 C 1.960938 0.078125 1.757812 0.015625 1.59375 -0.109375 C 1.425781 -0.234375 1.328125 -0.34375 1.296875 -0.4375 L 1.296875 0.875 C 1.296875 1.03125 1.328125 1.125 1.390625 1.15625 C 1.453125 1.1875 1.613281 1.203125 1.875 1.203125 L 1.875 1.4375 C 1.351562 1.425781 1.078125 1.421875 1.046875 1.421875 C 0.992188 1.421875 0.710938 1.425781 0.203125 1.4375 Z M 1.296875 -0.84375 C 1.296875 -0.769531 1.300781 -0.71875 1.3125 -0.6875 C 1.320312 -0.664062 1.351562 -0.613281 1.40625 -0.53125 C 1.601562 -0.226562 1.859375 -0.078125 2.171875 -0.078125 C 2.171875 -0.078125 2.175781 -0.078125 2.1875 -0.078125 C 2.46875 -0.078125 2.710938 -0.222656 2.921875 -0.515625 C 3.140625 -0.804688 3.25 -1.171875 3.25 -1.609375 C 3.25 -2.015625 3.148438 -2.363281 2.953125 -2.65625 C 2.753906 -2.945312 2.519531 -3.09375 2.25 -3.09375 C 2.0625 -3.09375 1.878906 -3.039062 1.703125 -2.9375 C 1.535156 -2.832031 1.398438 -2.6875 1.296875 -2.5 Z M 1.296875 -0.84375 "/></g></g><g transform="translate(168.876205, 55.839259)"><g><path d="M 0.140625 -2.96875 L 0.140625 -3.125 C 0.367188 -3.132812 0.554688 -3.21875 0.703125 -3.375 C 0.859375 -3.539062 0.960938 -3.722656 1.015625 -3.921875 C 1.066406 -4.117188 1.09375 -4.332031 1.09375 -4.5625 L 1.28125 -4.5625 L 1.28125 -3.203125 L 2.34375 -3.203125 L 2.34375 -2.96875 L 1.28125 -2.96875 L 1.28125 -0.90625 C 1.28125 -0.375 1.445312 -0.109375 1.78125 -0.109375 C 1.925781 -0.109375 2.046875 -0.179688 2.140625 -0.328125 C 2.234375 -0.472656 2.28125 -0.675781 2.28125 -0.9375 L 2.28125 -1.34375 L 2.46875 -1.34375 L 2.46875 -0.921875 C 2.46875 -0.648438 2.40625 -0.414062 2.28125 -0.21875 C 2.15625 -0.0195312 1.972656 0.078125 1.734375 0.078125 C 1.640625 0.078125 1.546875 0.0664062 1.453125 0.046875 C 1.367188 0.0234375 1.269531 -0.0078125 1.15625 -0.0625 C 1.039062 -0.125 0.945312 -0.226562 0.875 -0.375 C 0.800781 -0.53125 0.765625 -0.710938 0.765625 -0.921875 L 0.765625 -2.96875 Z M 0.140625 -2.96875 "/></g></g><g transform="translate(171.753293, 55.839259)"><g><path d="M 0.25 0 L 0.25 -0.234375 C 0.507812 -0.234375 0.671875 -0.25 0.734375 -0.28125 C 0.796875 -0.3125 0.828125 -0.40625 0.828125 -0.5625 L 0.828125 -2.5625 C 0.828125 -2.75 0.796875 -2.863281 0.734375 -2.90625 C 0.671875 -2.945312 0.519531 -2.96875 0.28125 -2.96875 L 0.28125 -3.203125 L 1.3125 -3.28125 L 1.3125 -0.5625 C 1.3125 -0.414062 1.335938 -0.320312 1.390625 -0.28125 C 1.441406 -0.25 1.585938 -0.234375 1.828125 -0.234375 L 1.828125 0 C 1.328125 -0.0078125 1.070312 -0.015625 1.0625 -0.015625 C 0.988281 -0.015625 0.71875 -0.0078125 0.25 0 Z M 0.5625 -4.578125 C 0.5625 -4.671875 0.597656 -4.757812 0.671875 -4.84375 C 0.742188 -4.925781 0.832031 -4.96875 0.9375 -4.96875 C 1.050781 -4.96875 1.144531 -4.929688 1.21875 -4.859375 C 1.300781 -4.785156 1.34375 -4.691406 1.34375 -4.578125 C 1.34375 -4.460938 1.300781 -4.363281 1.21875 -4.28125 C 1.144531 -4.207031 1.054688 -4.171875 0.953125 -4.171875 C 0.835938 -4.171875 0.742188 -4.210938 0.671875 -4.296875 C 0.597656 -4.378906 0.5625 -4.472656 0.5625 -4.578125 Z M 0.5625 -4.578125 "/></g></g><g transform="translate(173.807838, 55.839259)"><g><path d="M 0.234375 0 L 0.234375 -0.234375 C 0.503906 -0.234375 0.664062 -0.25 0.71875 -0.28125 C 0.78125 -0.3125 0.8125 -0.40625 0.8125 -0.5625 L 0.8125 -2.5625 C 0.8125 -2.738281 0.78125 -2.847656 0.71875 -2.890625 C 0.65625 -2.941406 0.492188 -2.96875 0.234375 -2.96875 L 0.234375 -3.203125 L 1.28125 -3.28125 L 1.28125 -2.5 C 1.507812 -3.019531 1.875 -3.28125 2.375 -3.28125 C 2.957031 -3.28125 3.289062 -3.039062 3.375 -2.5625 C 3.457031 -2.75 3.585938 -2.914062 3.765625 -3.0625 C 3.941406 -3.207031 4.171875 -3.28125 4.453125 -3.28125 C 4.816406 -3.28125 5.070312 -3.1875 5.21875 -3 C 5.332031 -2.875 5.398438 -2.742188 5.421875 -2.609375 C 5.441406 -2.472656 5.453125 -2.226562 5.453125 -1.875 L 5.453125 -0.453125 C 5.460938 -0.347656 5.503906 -0.285156 5.578125 -0.265625 C 5.660156 -0.242188 5.8125 -0.234375 6.03125 -0.234375 L 6.03125 0 C 5.53125 -0.0078125 5.253906 -0.015625 5.203125 -0.015625 C 5.160156 -0.015625 4.878906 -0.0078125 4.359375 0 L 4.359375 -0.234375 C 4.628906 -0.234375 4.789062 -0.25 4.84375 -0.28125 C 4.90625 -0.3125 4.9375 -0.40625 4.9375 -0.5625 L 4.9375 -2.296875 C 4.9375 -2.546875 4.898438 -2.742188 4.828125 -2.890625 C 4.753906 -3.035156 4.609375 -3.109375 4.390625 -3.109375 C 4.140625 -3.109375 3.910156 -3 3.703125 -2.78125 C 3.492188 -2.570312 3.390625 -2.285156 3.390625 -1.921875 L 3.390625 -0.5625 C 3.390625 -0.40625 3.421875 -0.3125 3.484375 -0.28125 C 3.546875 -0.25 3.707031 -0.234375 3.96875 -0.234375 L 3.96875 0 C 3.46875 -0.0078125 3.191406 -0.015625 3.140625 -0.015625 C 3.097656 -0.015625 2.816406 -0.0078125 2.296875 0 L 2.296875 -0.234375 C 2.566406 -0.234375 2.726562 -0.25 2.78125 -0.28125 C 2.84375 -0.3125 2.875 -0.40625 2.875 -0.5625 L 2.875 -2.296875 C 2.875 -2.546875 2.835938 -2.742188 2.765625 -2.890625 C 2.691406 -3.035156 2.546875 -3.109375 2.328125 -3.109375 C 2.078125 -3.109375 1.847656 -3 1.640625 -2.78125 C 1.429688 -2.570312 1.328125 -2.285156 1.328125 -1.921875 L 1.328125 -0.5625 C 1.328125 -0.40625 1.359375 -0.3125 1.421875 -0.28125 C 1.484375 -0.25 1.644531 -0.234375 1.90625 -0.234375 L 1.90625 0 C 1.40625 -0.0078125 1.128906 -0.015625 1.078125 -0.015625 C 1.035156 -0.015625 0.753906 -0.0078125 0.234375 0 Z M 0.234375 0 "/></g></g><g transform="translate(179.985968, 55.839259)"><g><path d="M 0.25 0 L 0.25 -0.234375 C 0.507812 -0.234375 0.671875 -0.25 0.734375 -0.28125 C 0.796875 -0.3125 0.828125 -0.40625 0.828125 -0.5625 L 0.828125 -2.5625 C 0.828125 -2.75 0.796875 -2.863281 0.734375 -2.90625 C 0.671875 -2.945312 0.519531 -2.96875 0.28125 -2.96875 L 0.28125 -3.203125 L 1.3125 -3.28125 L 1.3125 -0.5625 C 1.3125 -0.414062 1.335938 -0.320312 1.390625 -0.28125 C 1.441406 -0.25 1.585938 -0.234375 1.828125 -0.234375 L 1.828125 0 C 1.328125 -0.0078125 1.070312 -0.015625 1.0625 -0.015625 C 0.988281 -0.015625 0.71875 -0.0078125 0.25 0 Z M 0.5625 -4.578125 C 0.5625 -4.671875 0.597656 -4.757812 0.671875 -4.84375 C 0.742188 -4.925781 0.832031 -4.96875 0.9375 -4.96875 C 1.050781 -4.96875 1.144531 -4.929688 1.21875 -4.859375 C 1.300781 -4.785156 1.34375 -4.691406 1.34375 -4.578125 C 1.34375 -4.460938 1.300781 -4.363281 1.21875 -4.28125 C 1.144531 -4.207031 1.054688 -4.171875 0.953125 -4.171875 C 0.835938 -4.171875 0.742188 -4.210938 0.671875 -4.296875 C 0.597656 -4.378906 0.5625 -4.472656 0.5625 -4.578125 Z M 0.5625 -4.578125 "/></g></g><g transform="translate(182.040513, 55.839259)"><g><path d="M 0.203125 -0.109375 C 0.203125 -0.140625 0.226562 -0.179688 0.28125 -0.234375 L 2.34375 -3.03125 L 1.5 -3.03125 C 1.101562 -3.03125 0.84375 -2.957031 0.71875 -2.8125 C 0.59375 -2.675781 0.519531 -2.40625 0.5 -2 L 0.3125 -2 L 0.390625 -3.203125 L 2.765625 -3.203125 C 2.828125 -3.203125 2.867188 -3.195312 2.890625 -3.1875 C 2.910156 -3.1875 2.925781 -3.175781 2.9375 -3.15625 C 2.945312 -3.144531 2.953125 -3.125 2.953125 -3.09375 C 2.953125 -3.070312 2.929688 -3.03125 2.890625 -2.96875 L 0.828125 -0.1875 L 1.703125 -0.1875 C 2.117188 -0.1875 2.394531 -0.269531 2.53125 -0.4375 C 2.664062 -0.613281 2.753906 -0.929688 2.796875 -1.390625 L 2.96875 -1.390625 L 2.84375 0 L 0.40625 0 C 0.320312 0 0.265625 -0.00390625 0.234375 -0.015625 C 0.210938 -0.0234375 0.203125 -0.0546875 0.203125 -0.109375 Z M 0.203125 -0.109375 "/></g></g><g transform="translate(185.334307, 55.839259)"><g><path d="M 0.3125 -0.703125 C 0.3125 -1.128906 0.554688 -1.453125 1.046875 -1.671875 C 1.347656 -1.816406 1.804688 -1.90625 2.421875 -1.9375 L 2.421875 -2.203125 C 2.421875 -2.515625 2.335938 -2.75 2.171875 -2.90625 C 2.015625 -3.070312 1.835938 -3.15625 1.640625 -3.15625 C 1.273438 -3.15625 1.003906 -3.039062 0.828125 -2.8125 C 0.972656 -2.8125 1.070312 -2.773438 1.125 -2.703125 C 1.175781 -2.628906 1.203125 -2.554688 1.203125 -2.484375 C 1.203125 -2.378906 1.171875 -2.296875 1.109375 -2.234375 C 1.054688 -2.171875 0.976562 -2.140625 0.875 -2.140625 C 0.769531 -2.140625 0.6875 -2.171875 0.625 -2.234375 C 0.5625 -2.296875 0.53125 -2.378906 0.53125 -2.484375 C 0.53125 -2.722656 0.640625 -2.921875 0.859375 -3.078125 C 1.078125 -3.242188 1.34375 -3.328125 1.65625 -3.328125 C 2.050781 -3.328125 2.382812 -3.191406 2.65625 -2.921875 C 2.75 -2.835938 2.816406 -2.738281 2.859375 -2.625 C 2.898438 -2.519531 2.921875 -2.429688 2.921875 -2.359375 C 2.929688 -2.285156 2.9375 -2.179688 2.9375 -2.046875 L 2.9375 -0.5625 C 2.9375 -0.53125 2.9375 -0.488281 2.9375 -0.4375 C 2.945312 -0.394531 2.972656 -0.34375 3.015625 -0.28125 C 3.066406 -0.21875 3.128906 -0.1875 3.203125 -0.1875 C 3.378906 -0.1875 3.46875 -0.34375 3.46875 -0.65625 L 3.46875 -1.078125 L 3.65625 -1.078125 L 3.65625 -0.65625 C 3.65625 -0.394531 3.585938 -0.210938 3.453125 -0.109375 C 3.316406 -0.00390625 3.179688 0.046875 3.046875 0.046875 C 2.890625 0.046875 2.757812 -0.0078125 2.65625 -0.125 C 2.550781 -0.25 2.488281 -0.394531 2.46875 -0.5625 C 2.394531 -0.375 2.269531 -0.21875 2.09375 -0.09375 C 1.925781 0.0195312 1.726562 0.078125 1.5 0.078125 C 1.320312 0.078125 1.148438 0.0546875 0.984375 0.015625 C 0.816406 -0.0234375 0.660156 -0.109375 0.515625 -0.234375 C 0.378906 -0.359375 0.3125 -0.515625 0.3125 -0.703125 Z M 0.890625 -0.71875 C 0.890625 -0.53125 0.953125 -0.375 1.078125 -0.25 C 1.210938 -0.132812 1.367188 -0.078125 1.546875 -0.078125 C 1.753906 -0.078125 1.953125 -0.15625 2.140625 -0.3125 C 2.328125 -0.476562 2.421875 -0.722656 2.421875 -1.046875 L 2.421875 -1.78125 C 1.867188 -1.757812 1.472656 -1.640625 1.234375 -1.421875 C 1.003906 -1.203125 0.890625 -0.96875 0.890625 -0.71875 Z M 0.890625 -0.71875 "/></g></g><g transform="translate(189.044808, 55.839259)"><g><path d="M 0.140625 -2.96875 L 0.140625 -3.125 C 0.367188 -3.132812 0.554688 -3.21875 0.703125 -3.375 C 0.859375 -3.539062 0.960938 -3.722656 1.015625 -3.921875 C 1.066406 -4.117188 1.09375 -4.332031 1.09375 -4.5625 L 1.28125 -4.5625 L 1.28125 -3.203125 L 2.34375 -3.203125 L 2.34375 -2.96875 L 1.28125 -2.96875 L 1.28125 -0.90625 C 1.28125 -0.375 1.445312 -0.109375 1.78125 -0.109375 C 1.925781 -0.109375 2.046875 -0.179688 2.140625 -0.328125 C 2.234375 -0.472656 2.28125 -0.675781 2.28125 -0.9375 L 2.28125 -1.34375 L 2.46875 -1.34375 L 2.46875 -0.921875 C 2.46875 -0.648438 2.40625 -0.414062 2.28125 -0.21875 C 2.15625 -0.0195312 1.972656 0.078125 1.734375 0.078125 C 1.640625 0.078125 1.546875 0.0664062 1.453125 0.046875 C 1.367188 0.0234375 1.269531 -0.0078125 1.15625 -0.0625 C 1.039062 -0.125 0.945312 -0.226562 0.875 -0.375 C 0.800781 -0.53125 0.765625 -0.710938 0.765625 -0.921875 L 0.765625 -2.96875 Z M 0.140625 -2.96875 "/></g></g><g transform="translate(191.921896, 55.839259)"><g><path d="M 0.25 0 L 0.25 -0.234375 C 0.507812 -0.234375 0.671875 -0.25 0.734375 -0.28125 C 0.796875 -0.3125 0.828125 -0.40625 0.828125 -0.5625 L 0.828125 -2.5625 C 0.828125 -2.75 0.796875 -2.863281 0.734375 -2.90625 C 0.671875 -2.945312 0.519531 -2.96875 0.28125 -2.96875 L 0.28125 -3.203125 L 1.3125 -3.28125 L 1.3125 -0.5625 C 1.3125 -0.414062 1.335938 -0.320312 1.390625 -0.28125 C 1.441406 -0.25 1.585938 -0.234375 1.828125 -0.234375 L 1.828125 0 C 1.328125 -0.0078125 1.070312 -0.015625 1.0625 -0.015625 C 0.988281 -0.015625 0.71875 -0.0078125 0.25 0 Z M 0.5625 -4.578125 C 0.5625 -4.671875 0.597656 -4.757812 0.671875 -4.84375 C 0.742188 -4.925781 0.832031 -4.96875 0.9375 -4.96875 C 1.050781 -4.96875 1.144531 -4.929688 1.21875 -4.859375 C 1.300781 -4.785156 1.34375 -4.691406 1.34375 -4.578125 C 1.34375 -4.460938 1.300781 -4.363281 1.21875 -4.28125 C 1.144531 -4.207031 1.054688 -4.171875 0.953125 -4.171875 C 0.835938 -4.171875 0.742188 -4.210938 0.671875 -4.296875 C 0.597656 -4.378906 0.5625 -4.472656 0.5625 -4.578125 Z M 0.5625 -4.578125 "/></g></g><g transform="translate(193.976441, 55.839259)"><g><path d="M 0.6875 -0.40625 C 0.363281 -0.726562 0.203125 -1.125 0.203125 -1.59375 C 0.203125 -2.0625 0.363281 -2.46875 0.6875 -2.8125 C 1.007812 -3.15625 1.398438 -3.328125 1.859375 -3.328125 C 2.304688 -3.328125 2.691406 -3.15625 3.015625 -2.8125 C 3.335938 -2.46875 3.5 -2.0625 3.5 -1.59375 C 3.5 -1.125 3.332031 -0.726562 3 -0.40625 C 2.675781 -0.0820312 2.289062 0.078125 1.84375 0.078125 C 1.40625 0.078125 1.019531 -0.0820312 0.6875 -0.40625 Z M 0.828125 -1.65625 C 0.828125 -1.164062 0.890625 -0.816406 1.015625 -0.609375 C 1.203125 -0.273438 1.484375 -0.109375 1.859375 -0.109375 C 2.035156 -0.109375 2.203125 -0.15625 2.359375 -0.25 C 2.515625 -0.351562 2.632812 -0.488281 2.71875 -0.65625 C 2.820312 -0.875 2.875 -1.207031 2.875 -1.65625 C 2.875 -2.125 2.8125 -2.460938 2.6875 -2.671875 C 2.488281 -2.992188 2.207031 -3.15625 1.84375 -3.15625 C 1.6875 -3.15625 1.53125 -3.113281 1.375 -3.03125 C 1.21875 -2.945312 1.09375 -2.820312 1 -2.65625 C 0.882812 -2.445312 0.828125 -2.113281 0.828125 -1.65625 Z M 0.828125 -1.65625 "/></g></g><g transform="translate(197.686942, 55.839259)"><g><path d="M 0.234375 0 L 0.234375 -0.234375 C 0.503906 -0.234375 0.664062 -0.25 0.71875 -0.28125 C 0.78125 -0.3125 0.8125 -0.40625 0.8125 -0.5625 L 0.8125 -2.5625 C 0.8125 -2.738281 0.78125 -2.847656 0.71875 -2.890625 C 0.65625 -2.941406 0.492188 -2.96875 0.234375 -2.96875 L 0.234375 -3.203125 L 1.28125 -3.28125 L 1.28125 -2.5 C 1.507812 -3.019531 1.875 -3.28125 2.375 -3.28125 C 2.75 -3.28125 3.007812 -3.1875 3.15625 -3 C 3.269531 -2.875 3.335938 -2.742188 3.359375 -2.609375 C 3.378906 -2.472656 3.390625 -2.226562 3.390625 -1.875 L 3.390625 -0.453125 C 3.398438 -0.347656 3.441406 -0.285156 3.515625 -0.265625 C 3.597656 -0.242188 3.75 -0.234375 3.96875 -0.234375 L 3.96875 0 C 3.46875 -0.0078125 3.191406 -0.015625 3.140625 -0.015625 C 3.097656 -0.015625 2.816406 -0.0078125 2.296875 0 L 2.296875 -0.234375 C 2.566406 -0.234375 2.726562 -0.25 2.78125 -0.28125 C 2.84375 -0.3125 2.875 -0.40625 2.875 -0.5625 L 2.875 -2.296875 C 2.875 -2.546875 2.835938 -2.742188 2.765625 -2.890625 C 2.691406 -3.035156 2.546875 -3.109375 2.328125 -3.109375 C 2.078125 -3.109375 1.847656 -3 1.640625 -2.78125 C 1.429688 -2.570312 1.328125 -2.285156 1.328125 -1.921875 L 1.328125 -0.5625 C 1.328125 -0.40625 1.359375 -0.3125 1.421875 -0.28125 C 1.484375 -0.25 1.644531 -0.234375 1.90625 -0.234375 L 1.90625 0 C 1.40625 -0.0078125 1.128906 -0.015625 1.078125 -0.015625 C 1.035156 -0.015625 0.753906 -0.0078125 0.234375 0 Z M 0.234375 0 "/></g></g></g><g fill="#000000" fill-opacity="1"><g transform="translate(136.189493, 65.733928)"><g/></g></g><g fill="#000000" fill-opacity="1"><g transform="translate(138.653497, 65.733928)"><g><path d="M 0.25 -2.96875 L 0.25 -3.203125 L 0.828125 -3.203125 L 0.828125 -4.046875 C 0.828125 -4.421875 0.945312 -4.710938 1.1875 -4.921875 C 1.425781 -5.128906 1.691406 -5.234375 1.984375 -5.234375 C 2.171875 -5.234375 2.328125 -5.179688 2.453125 -5.078125 C 2.585938 -4.972656 2.65625 -4.851562 2.65625 -4.71875 C 2.65625 -4.613281 2.625 -4.53125 2.5625 -4.46875 C 2.507812 -4.414062 2.429688 -4.390625 2.328125 -4.390625 C 2.222656 -4.390625 2.140625 -4.421875 2.078125 -4.484375 C 2.023438 -4.546875 2 -4.617188 2 -4.703125 C 2 -4.859375 2.070312 -4.960938 2.21875 -5.015625 C 2.144531 -5.046875 2.066406 -5.0625 1.984375 -5.0625 C 1.804688 -5.0625 1.644531 -4.96875 1.5 -4.78125 C 1.363281 -4.601562 1.296875 -4.363281 1.296875 -4.0625 L 1.296875 -3.203125 L 2.171875 -3.203125 L 2.171875 -2.96875 L 1.328125 -2.96875 L 1.328125 -0.578125 C 1.328125 -0.429688 1.351562 -0.335938 1.40625 -0.296875 C 1.46875 -0.253906 1.628906 -0.234375 1.890625 -0.234375 L 2.046875 -0.234375 L 2.046875 0 C 1.847656 -0.0078125 1.53125 -0.015625 1.09375 -0.015625 C 1.03125 -0.015625 0.953125 -0.015625 0.859375 -0.015625 C 0.773438 -0.015625 0.671875 -0.0078125 0.546875 0 C 0.421875 0 0.320312 0 0.25 0 L 0.25 -0.234375 C 0.519531 -0.234375 0.679688 -0.25 0.734375 -0.28125 C 0.796875 -0.3125 0.828125 -0.40625 0.828125 -0.5625 L 0.828125 -2.96875 Z M 0.25 -2.96875 "/></g></g><g transform="translate(140.914584, 65.733928)"><g><path d="M 0.203125 0 L 0.203125 -0.234375 C 0.472656 -0.234375 0.632812 -0.25 0.6875 -0.28125 C 0.75 -0.3125 0.78125 -0.40625 0.78125 -0.5625 L 0.78125 -2.5625 C 0.78125 -2.738281 0.75 -2.847656 0.6875 -2.890625 C 0.625 -2.941406 0.460938 -2.96875 0.203125 -2.96875 L 0.203125 -3.203125 L 1.234375 -3.28125 L 1.234375 -2.46875 C 1.304688 -2.675781 1.414062 -2.863281 1.5625 -3.03125 C 1.71875 -3.195312 1.914062 -3.28125 2.15625 -3.28125 C 2.3125 -3.28125 2.441406 -3.234375 2.546875 -3.140625 C 2.648438 -3.054688 2.703125 -2.953125 2.703125 -2.828125 C 2.703125 -2.710938 2.664062 -2.628906 2.59375 -2.578125 C 2.53125 -2.523438 2.457031 -2.5 2.375 -2.5 C 2.289062 -2.5 2.21875 -2.523438 2.15625 -2.578125 C 2.09375 -2.640625 2.0625 -2.71875 2.0625 -2.8125 C 2.0625 -2.875 2.070312 -2.925781 2.09375 -2.96875 C 2.125 -3.019531 2.148438 -3.054688 2.171875 -3.078125 C 2.191406 -3.097656 2.210938 -3.109375 2.234375 -3.109375 C 2.222656 -3.109375 2.195312 -3.109375 2.15625 -3.109375 C 1.882812 -3.109375 1.671875 -2.972656 1.515625 -2.703125 C 1.359375 -2.429688 1.28125 -2.101562 1.28125 -1.71875 L 1.28125 -0.578125 C 1.28125 -0.429688 1.304688 -0.335938 1.359375 -0.296875 C 1.421875 -0.253906 1.582031 -0.234375 1.84375 -0.234375 L 2 -0.234375 L 2 0 C 1.800781 -0.0078125 1.484375 -0.015625 1.046875 -0.015625 C 0.992188 -0.015625 0.921875 -0.015625 0.828125 -0.015625 C 0.734375 -0.015625 0.625 -0.0078125 0.5 0 C 0.375 0 0.273438 0 0.203125 0 Z M 0.203125 0 "/></g></g><g transform="translate(143.813413, 65.733928)"><g><path d="M 0.3125 -0.703125 C 0.3125 -1.128906 0.554688 -1.453125 1.046875 -1.671875 C 1.347656 -1.816406 1.804688 -1.90625 2.421875 -1.9375 L 2.421875 -2.203125 C 2.421875 -2.515625 2.335938 -2.75 2.171875 -2.90625 C 2.015625 -3.070312 1.835938 -3.15625 1.640625 -3.15625 C 1.273438 -3.15625 1.003906 -3.039062 0.828125 -2.8125 C 0.972656 -2.8125 1.070312 -2.773438 1.125 -2.703125 C 1.175781 -2.628906 1.203125 -2.554688 1.203125 -2.484375 C 1.203125 -2.378906 1.171875 -2.296875 1.109375 -2.234375 C 1.054688 -2.171875 0.976562 -2.140625 0.875 -2.140625 C 0.769531 -2.140625 0.6875 -2.171875 0.625 -2.234375 C 0.5625 -2.296875 0.53125 -2.378906 0.53125 -2.484375 C 0.53125 -2.722656 0.640625 -2.921875 0.859375 -3.078125 C 1.078125 -3.242188 1.34375 -3.328125 1.65625 -3.328125 C 2.050781 -3.328125 2.382812 -3.191406 2.65625 -2.921875 C 2.75 -2.835938 2.816406 -2.738281 2.859375 -2.625 C 2.898438 -2.519531 2.921875 -2.429688 2.921875 -2.359375 C 2.929688 -2.285156 2.9375 -2.179688 2.9375 -2.046875 L 2.9375 -0.5625 C 2.9375 -0.53125 2.9375 -0.488281 2.9375 -0.4375 C 2.945312 -0.394531 2.972656 -0.34375 3.015625 -0.28125 C 3.066406 -0.21875 3.128906 -0.1875 3.203125 -0.1875 C 3.378906 -0.1875 3.46875 -0.34375 3.46875 -0.65625 L 3.46875 -1.078125 L 3.65625 -1.078125 L 3.65625 -0.65625 C 3.65625 -0.394531 3.585938 -0.210938 3.453125 -0.109375 C 3.316406 -0.00390625 3.179688 0.046875 3.046875 0.046875 C 2.890625 0.046875 2.757812 -0.0078125 2.65625 -0.125 C 2.550781 -0.25 2.488281 -0.394531 2.46875 -0.5625 C 2.394531 -0.375 2.269531 -0.21875 2.09375 -0.09375 C 1.925781 0.0195312 1.726562 0.078125 1.5 0.078125 C 1.320312 0.078125 1.148438 0.0546875 0.984375 0.015625 C 0.816406 -0.0234375 0.660156 -0.109375 0.515625 -0.234375 C 0.378906 -0.359375 0.3125 -0.515625 0.3125 -0.703125 Z M 0.890625 -0.71875 C 0.890625 -0.53125 0.953125 -0.375 1.078125 -0.25 C 1.210938 -0.132812 1.367188 -0.078125 1.546875 -0.078125 C 1.753906 -0.078125 1.953125 -0.15625 2.140625 -0.3125 C 2.328125 -0.476562 2.421875 -0.722656 2.421875 -1.046875 L 2.421875 -1.78125 C 1.867188 -1.757812 1.472656 -1.640625 1.234375 -1.421875 C 1.003906 -1.203125 0.890625 -0.96875 0.890625 -0.71875 Z M 0.890625 -0.71875 "/></g></g><g transform="translate(147.523914, 65.733928)"><g><path d="M 0.234375 0 L 0.234375 -0.234375 C 0.503906 -0.234375 0.664062 -0.25 0.71875 -0.28125 C 0.78125 -0.3125 0.8125 -0.40625 0.8125 -0.5625 L 0.8125 -2.5625 C 0.8125 -2.738281 0.78125 -2.847656 0.71875 -2.890625 C 0.65625 -2.941406 0.492188 -2.96875 0.234375 -2.96875 L 0.234375 -3.203125 L 1.28125 -3.28125 L 1.28125 -2.5 C 1.507812 -3.019531 1.875 -3.28125 2.375 -3.28125 C 2.957031 -3.28125 3.289062 -3.039062 3.375 -2.5625 C 3.457031 -2.75 3.585938 -2.914062 3.765625 -3.0625 C 3.941406 -3.207031 4.171875 -3.28125 4.453125 -3.28125 C 4.816406 -3.28125 5.070312 -3.1875 5.21875 -3 C 5.332031 -2.875 5.398438 -2.742188 5.421875 -2.609375 C 5.441406 -2.472656 5.453125 -2.226562 5.453125 -1.875 L 5.453125 -0.453125 C 5.460938 -0.347656 5.503906 -0.285156 5.578125 -0.265625 C 5.660156 -0.242188 5.8125 -0.234375 6.03125 -0.234375 L 6.03125 0 C 5.53125 -0.0078125 5.253906 -0.015625 5.203125 -0.015625 C 5.160156 -0.015625 4.878906 -0.0078125 4.359375 0 L 4.359375 -0.234375 C 4.628906 -0.234375 4.789062 -0.25 4.84375 -0.28125 C 4.90625 -0.3125 4.9375 -0.40625 4.9375 -0.5625 L 4.9375 -2.296875 C 4.9375 -2.546875 4.898438 -2.742188 4.828125 -2.890625 C 4.753906 -3.035156 4.609375 -3.109375 4.390625 -3.109375 C 4.140625 -3.109375 3.910156 -3 3.703125 -2.78125 C 3.492188 -2.570312 3.390625 -2.285156 3.390625 -1.921875 L 3.390625 -0.5625 C 3.390625 -0.40625 3.421875 -0.3125 3.484375 -0.28125 C 3.546875 -0.25 3.707031 -0.234375 3.96875 -0.234375 L 3.96875 0 C 3.46875 -0.0078125 3.191406 -0.015625 3.140625 -0.015625 C 3.097656 -0.015625 2.816406 -0.0078125 2.296875 0 L 2.296875 -0.234375 C 2.566406 -0.234375 2.726562 -0.25 2.78125 -0.28125 C 2.84375 -0.3125 2.875 -0.40625 2.875 -0.5625 L 2.875 -2.296875 C 2.875 -2.546875 2.835938 -2.742188 2.765625 -2.890625 C 2.691406 -3.035156 2.546875 -3.109375 2.328125 -3.109375 C 2.078125 -3.109375 1.847656 -3 1.640625 -2.78125 C 1.429688 -2.570312 1.328125 -2.285156 1.328125 -1.921875 L 1.328125 -0.5625 C 1.328125 -0.40625 1.359375 -0.3125 1.421875 -0.28125 C 1.484375 -0.25 1.644531 -0.234375 1.90625 -0.234375 L 1.90625 0 C 1.40625 -0.0078125 1.128906 -0.015625 1.078125 -0.015625 C 1.035156 -0.015625 0.753906 -0.0078125 0.234375 0 Z M 0.234375 0 "/></g></g><g transform="translate(153.702043, 65.733928)"><g><path d="M 0.203125 -1.640625 C 0.203125 -2.097656 0.351562 -2.492188 0.65625 -2.828125 C 0.957031 -3.160156 1.320312 -3.328125 1.75 -3.328125 C 2.1875 -3.328125 2.515625 -3.1875 2.734375 -2.90625 C 2.960938 -2.625 3.078125 -2.28125 3.078125 -1.875 C 3.078125 -1.789062 3.066406 -1.742188 3.046875 -1.734375 C 3.023438 -1.722656 2.972656 -1.71875 2.890625 -1.71875 L 0.828125 -1.71875 C 0.828125 -1.207031 0.898438 -0.835938 1.046875 -0.609375 C 1.253906 -0.273438 1.535156 -0.109375 1.890625 -0.109375 C 1.929688 -0.109375 1.976562 -0.113281 2.03125 -0.125 C 2.09375 -0.132812 2.179688 -0.160156 2.296875 -0.203125 C 2.421875 -0.242188 2.535156 -0.320312 2.640625 -0.4375 C 2.742188 -0.550781 2.828125 -0.695312 2.890625 -0.875 C 2.898438 -0.9375 2.929688 -0.96875 2.984375 -0.96875 C 3.046875 -0.96875 3.078125 -0.941406 3.078125 -0.890625 C 3.078125 -0.835938 3.050781 -0.765625 3 -0.671875 C 2.957031 -0.578125 2.890625 -0.46875 2.796875 -0.34375 C 2.710938 -0.226562 2.582031 -0.128906 2.40625 -0.046875 C 2.238281 0.0351562 2.050781 0.078125 1.84375 0.078125 C 1.40625 0.078125 1.019531 -0.0820312 0.6875 -0.40625 C 0.363281 -0.738281 0.203125 -1.148438 0.203125 -1.640625 Z M 0.828125 -1.875 L 2.59375 -1.875 C 2.59375 -1.976562 2.582031 -2.085938 2.5625 -2.203125 C 2.539062 -2.316406 2.503906 -2.453125 2.453125 -2.609375 C 2.398438 -2.773438 2.3125 -2.90625 2.1875 -3 C 2.070312 -3.101562 1.925781 -3.15625 1.75 -3.15625 C 1.664062 -3.15625 1.582031 -3.140625 1.5 -3.109375 C 1.414062 -3.078125 1.320312 -3.019531 1.21875 -2.9375 C 1.113281 -2.851562 1.023438 -2.71875 0.953125 -2.53125 C 0.878906 -2.34375 0.835938 -2.125 0.828125 -1.875 Z M 0.828125 -1.875 "/></g></g><g transform="translate(156.995838, 65.733928)"><g><path d="M 0.140625 -2.96875 L 0.140625 -3.203125 C 0.398438 -3.179688 0.628906 -3.171875 0.828125 -3.171875 C 0.921875 -3.171875 1.191406 -3.179688 1.640625 -3.203125 L 1.640625 -2.96875 C 1.347656 -2.96875 1.203125 -2.898438 1.203125 -2.765625 C 1.203125 -2.734375 1.210938 -2.691406 1.234375 -2.640625 L 1.9375 -0.65625 L 2.578125 -2.453125 C 2.484375 -2.691406 2.425781 -2.828125 2.40625 -2.859375 C 2.34375 -2.929688 2.1875 -2.96875 1.9375 -2.96875 L 1.9375 -3.203125 C 2.15625 -3.179688 2.375 -3.171875 2.59375 -3.171875 C 2.675781 -3.171875 2.9375 -3.179688 3.375 -3.203125 L 3.375 -2.96875 C 3.082031 -2.96875 2.9375 -2.898438 2.9375 -2.765625 C 2.9375 -2.742188 2.945312 -2.695312 2.96875 -2.625 L 3.703125 -0.5625 L 4.375 -2.453125 C 4.394531 -2.523438 4.410156 -2.578125 4.421875 -2.609375 C 4.421875 -2.722656 4.378906 -2.804688 4.296875 -2.859375 C 4.222656 -2.921875 4.117188 -2.957031 3.984375 -2.96875 L 3.984375 -3.203125 C 4.265625 -3.179688 4.492188 -3.171875 4.671875 -3.171875 C 4.867188 -3.171875 5.050781 -3.179688 5.21875 -3.203125 L 5.21875 -2.96875 C 4.914062 -2.957031 4.707031 -2.800781 4.59375 -2.5 L 3.71875 -0.0625 C 3.664062 0.03125 3.617188 0.078125 3.578125 0.078125 C 3.515625 0.078125 3.460938 0.03125 3.421875 -0.0625 L 2.671875 -2.171875 L 1.921875 -0.0625 C 1.898438 0 1.878906 0.0351562 1.859375 0.046875 C 1.847656 0.0664062 1.816406 0.078125 1.765625 0.078125 C 1.722656 0.078125 1.691406 0.0625 1.671875 0.03125 C 1.660156 0.0078125 1.640625 -0.0234375 1.609375 -0.078125 L 0.6875 -2.703125 C 0.632812 -2.816406 0.578125 -2.890625 0.515625 -2.921875 C 0.453125 -2.953125 0.328125 -2.96875 0.140625 -2.96875 Z M 0.140625 -2.96875 "/></g></g><g transform="translate(162.351425, 65.733928)"><g><path d="M 0.6875 -0.40625 C 0.363281 -0.726562 0.203125 -1.125 0.203125 -1.59375 C 0.203125 -2.0625 0.363281 -2.46875 0.6875 -2.8125 C 1.007812 -3.15625 1.398438 -3.328125 1.859375 -3.328125 C 2.304688 -3.328125 2.691406 -3.15625 3.015625 -2.8125 C 3.335938 -2.46875 3.5 -2.0625 3.5 -1.59375 C 3.5 -1.125 3.332031 -0.726562 3 -0.40625 C 2.675781 -0.0820312 2.289062 0.078125 1.84375 0.078125 C 1.40625 0.078125 1.019531 -0.0820312 0.6875 -0.40625 Z M 0.828125 -1.65625 C 0.828125 -1.164062 0.890625 -0.816406 1.015625 -0.609375 C 1.203125 -0.273438 1.484375 -0.109375 1.859375 -0.109375 C 2.035156 -0.109375 2.203125 -0.15625 2.359375 -0.25 C 2.515625 -0.351562 2.632812 -0.488281 2.71875 -0.65625 C 2.820312 -0.875 2.875 -1.207031 2.875 -1.65625 C 2.875 -2.125 2.8125 -2.460938 2.6875 -2.671875 C 2.488281 -2.992188 2.207031 -3.15625 1.84375 -3.15625 C 1.6875 -3.15625 1.53125 -3.113281 1.375 -3.03125 C 1.21875 -2.945312 1.09375 -2.820312 1 -2.65625 C 0.882812 -2.445312 0.828125 -2.113281 0.828125 -1.65625 Z M 0.828125 -1.65625 "/></g></g><g transform="translate(166.061926, 65.733928)"><g><path d="M 0.203125 0 L 0.203125 -0.234375 C 0.472656 -0.234375 0.632812 -0.25 0.6875 -0.28125 C 0.75 -0.3125 0.78125 -0.40625 0.78125 -0.5625 L 0.78125 -2.5625 C 0.78125 -2.738281 0.75 -2.847656 0.6875 -2.890625 C 0.625 -2.941406 0.460938 -2.96875 0.203125 -2.96875 L 0.203125 -3.203125 L 1.234375 -3.28125 L 1.234375 -2.46875 C 1.304688 -2.675781 1.414062 -2.863281 1.5625 -3.03125 C 1.71875 -3.195312 1.914062 -3.28125 2.15625 -3.28125 C 2.3125 -3.28125 2.441406 -3.234375 2.546875 -3.140625 C 2.648438 -3.054688 2.703125 -2.953125 2.703125 -2.828125 C 2.703125 -2.710938 2.664062 -2.628906 2.59375 -2.578125 C 2.53125 -2.523438 2.457031 -2.5 2.375 -2.5 C 2.289062 -2.5 2.21875 -2.523438 2.15625 -2.578125 C 2.09375 -2.640625 2.0625 -2.71875 2.0625 -2.8125 C 2.0625 -2.875 2.070312 -2.925781 2.09375 -2.96875 C 2.125 -3.019531 2.148438 -3.054688 2.171875 -3.078125 C 2.191406 -3.097656 2.210938 -3.109375 2.234375 -3.109375 C 2.222656 -3.109375 2.195312 -3.109375 2.15625 -3.109375 C 1.882812 -3.109375 1.671875 -2.972656 1.515625 -2.703125 C 1.359375 -2.429688 1.28125 -2.101562 1.28125 -1.71875 L 1.28125 -0.578125 C 1.28125 -0.429688 1.304688 -0.335938 1.359375 -0.296875 C 1.421875 -0.253906 1.582031 -0.234375 1.84375 -0.234375 L 2 -0.234375 L 2 0 C 1.800781 -0.0078125 1.484375 -0.015625 1.046875 -0.015625 C 0.992188 -0.015625 0.921875 -0.015625 0.828125 -0.015625 C 0.734375 -0.015625 0.625 -0.0078125 0.5 0 C 0.375 0 0.273438 0 0.203125 0 Z M 0.203125 0 "/></g></g><g transform="translate(168.960755, 65.733928)"><g><path d="M 0.203125 0 L 0.203125 -0.234375 C 0.472656 -0.234375 0.632812 -0.25 0.6875 -0.28125 C 0.75 -0.3125 0.78125 -0.40625 0.78125 -0.5625 L 0.78125 -4.421875 C 0.78125 -4.609375 0.75 -4.722656 0.6875 -4.765625 C 0.625 -4.816406 0.460938 -4.84375 0.203125 -4.84375 L 0.203125 -5.0625 L 1.28125 -5.15625 L 1.28125 -1.59375 L 2.328125 -2.5 C 2.429688 -2.59375 2.484375 -2.6875 2.484375 -2.78125 C 2.484375 -2.894531 2.410156 -2.957031 2.265625 -2.96875 L 2.265625 -3.203125 C 2.472656 -3.179688 2.753906 -3.171875 3.109375 -3.171875 C 3.304688 -3.171875 3.476562 -3.179688 3.625 -3.203125 L 3.625 -2.96875 C 3.3125 -2.957031 3 -2.820312 2.6875 -2.5625 C 2.613281 -2.507812 2.492188 -2.410156 2.328125 -2.265625 C 2.160156 -2.128906 2.078125 -2.050781 2.078125 -2.03125 C 2.078125 -2.03125 2.082031 -2.019531 2.09375 -2 C 2.101562 -1.988281 2.109375 -1.976562 2.109375 -1.96875 C 2.117188 -1.957031 2.125 -1.953125 2.125 -1.953125 L 3.078125 -0.625 C 3.203125 -0.445312 3.3125 -0.335938 3.40625 -0.296875 C 3.5 -0.253906 3.628906 -0.234375 3.796875 -0.234375 L 3.796875 0 C 3.578125 -0.0078125 3.359375 -0.015625 3.140625 -0.015625 C 3.023438 -0.015625 2.757812 -0.0078125 2.34375 0 L 2.34375 -0.234375 C 2.519531 -0.234375 2.609375 -0.289062 2.609375 -0.40625 C 2.609375 -0.476562 2.410156 -0.796875 2.015625 -1.359375 C 1.984375 -1.390625 1.9375 -1.445312 1.875 -1.53125 C 1.8125 -1.625 1.765625 -1.691406 1.734375 -1.734375 L 1.25 -1.328125 L 1.25 -0.5625 C 1.25 -0.40625 1.28125 -0.3125 1.34375 -0.28125 C 1.40625 -0.25 1.566406 -0.234375 1.828125 -0.234375 L 1.828125 0 C 1.535156 -0.0078125 1.265625 -0.015625 1.015625 -0.015625 C 0.960938 -0.015625 0.691406 -0.0078125 0.203125 0 Z M 0.203125 0 "/></g></g></g></svg>