<svg xmlns="http://www.w3.org/2000/svg" xmlns:xlink="http://www.w3.org/1999/xlink" width="500" zoomAndPan="magnify" viewBox="0 0 375 374.999991" height="500" preserveAspectRatio="xMidYMid meet" version="1.0"><defs><clipPath id="id1"><path d="M 24.21875 24.21875 L 350.46875 24.21875 L 350.46875 350.46875 L 24.21875 350.46875 Z M 24.21875 24.21875 " clip-rule="nonzero"/></clipPath><clipPath id="id2"><path d="M 38.921875 37.554688 L 335.921875 37.554688 L 335.921875 334.554688 L 38.921875 334.554688 Z M 38.921875 37.554688 " clip-rule="nonzero"/></clipPath><clipPath id="id3"><path d="M 52.722656 52.722656 L 321.972656 52.722656 L 321.972656 321.972656 L 52.722656 321.972656 Z M 52.722656 52.722656 " clip-rule="nonzero"/></clipPath><clipPath id="id4"><path d="M 67.320312 67.320312 L 307.320312 67.320312 L 307.320312 307.320312 L 67.320312 307.320312 Z M 67.320312 67.320312 " clip-rule="nonzero"/></clipPath><clipPath id="id5"><path d="M 85.835938 87 L 296 87 L 296 288 L 85.835938 288 Z M 85.835938 87 " clip-rule="nonzero"/></clipPath></defs><g clip-path="url(#id1)"><path fill="#5f9d00" d="M 187.34375 24.21875 C 97.25 24.21875 24.21875 97.25 24.21875 187.34375 C 24.21875 277.433594 97.25 350.46875 187.34375 350.46875 C 277.433594 350.46875 350.46875 277.433594 350.46875 187.34375 C 350.46875 97.25 277.433594 24.21875 187.34375 24.21875 " fill-opacity="1" fill-rule="nonzero"/></g><g clip-path="url(#id2)"><path fill="#c2d93c" d="M 187.421875 37.554688 C 105.40625 37.554688 38.921875 104.042969 38.921875 186.054688 C 38.921875 268.070312 105.40625 334.554688 187.421875 334.554688 C 269.433594 334.554688 335.921875 268.070312 335.921875 186.054688 C 335.921875 104.042969 269.433594 37.554688 187.421875 37.554688 " fill-opacity="1" fill-rule="nonzero"/></g><g clip-path="url(#id3)"><path fill="#efdd9c" d="M 187.347656 52.722656 C 112.996094 52.722656 52.722656 112.996094 52.722656 187.347656 C 52.722656 261.699219 112.996094 321.972656 187.347656 321.972656 C 261.699219 321.972656 321.972656 261.699219 321.972656 187.347656 C 321.972656 112.996094 261.699219 52.722656 187.347656 52.722656 " fill-opacity="1" fill-rule="nonzero"/></g><g clip-path="url(#id4)"><path fill="#f9e8b4" d="M 187.320312 67.320312 C 121.046875 67.320312 67.320312 121.046875 67.320312 187.320312 C 67.320312 253.59375 121.046875 307.320312 187.320312 307.320312 C 253.59375 307.320312 307.320312 253.59375 307.320312 187.320312 C 307.320312 121.046875 253.59375 67.320312 187.320312 67.320312 " fill-opacity="1" fill-rule="nonzero"/></g><path fill="#f7bc5c" d="M 225.503906 132.328125 C 239.039062 138.753906 248.648438 155.148438 248.511719 169.582031 C 248.4375 178.851562 243.882812 185.175781 234.445312 182.027344 C 226.324219 179.308594 217.792969 180.925781 210.820312 183.644531 C 201.894531 187.128906 196.121094 190.390625 196.964844 194.839844 C 199.121094 206.222656 217.011719 211.054688 226.953125 209.816406 C 235.894531 208.703125 249.28125 211.164062 245.269531 223.238281 C 241.492188 234.628906 228.6875 246.578125 217.953125 251.667969 C 202.351562 259.070312 188.285156 254.957031 192.667969 239.917969 C 193.722656 236.308594 194.203125 233.058594 194.226562 230.070312 C 194.265625 226.054688 192.320312 217.949219 189.203125 211.730469 C 181.140625 195.621094 171.792969 206.097656 168.660156 217.738281 C 167.371094 222.507812 166.890625 227.847656 166.070312 234.445312 C 165.652344 237.878906 165.144531 240.660156 164.535156 242.882812 C 160.265625 258.480469 141.828125 246.480469 134.546875 239.523438 C 116.976562 222.765625 115.550781 191.851562 134.65625 198.226562 C 144.785156 201.613281 156.238281 199.425781 165.402344 194.554688 C 186.03125 183.558594 158.160156 173.882812 140.144531 171.683594 C 125.023438 169.84375 119.664062 164.503906 125.644531 150.441406 C 128.429688 143.917969 133.121094 137.910156 138.484375 133.191406 C 143.289062 128.953125 148.636719 125.765625 153.628906 124.160156 C 177.054688 116.621094 175.605469 132.5 175.332031 147.660156 C 175.234375 153.46875 176.484375 160.242188 178.578125 166.0625 C 185.015625 184.078125 191.640625 180.320312 200.121094 167.074219 C 205.273438 159.019531 206.6875 152.457031 206.933594 141.816406 C 207.179688 131.152344 211.242188 125.566406 225.503906 132.328125 " fill-opacity="1" fill-rule="evenodd"/><g clip-path="url(#id5)"><path fill="#f9e8b4" d="M 250.675781 122.851562 C 233.824219 106.03125 210.558594 95.640625 184.855469 95.640625 C 159.148438 95.640625 135.871094 106.03125 119.03125 122.851562 C 102.191406 139.65625 91.765625 162.886719 91.765625 188.539062 C 91.765625 214.191406 102.191406 237.410156 119.03125 254.226562 C 135.871094 271.035156 159.148438 281.425781 184.855469 281.425781 C 210.558594 281.425781 233.824219 271.035156 250.675781 254.226562 C 267.519531 237.410156 277.945312 214.191406 277.945312 188.539062 C 277.945312 162.886719 267.519531 139.65625 250.675781 122.851562 Z M 158.046875 283.675781 C 141.480469 279.039062 126.671875 270.207031 114.847656 258.40625 C 96.929688 240.523438 85.847656 215.824219 85.847656 188.539062 C 85.847656 137.789062 122.277344 100.015625 168.199219 89.945312 C 183.851562 86.507812 199.105469 86.273438 213.308594 88.722656 C 307.835938 104.96875 322.074219 221.457031 250.28125 269.105469 C 240.152344 275.828125 228.390625 280.957031 215.042969 283.984375 C 196.667969 288.148438 176.273438 288.777344 158.046875 283.675781 " fill-opacity="1" fill-rule="nonzero"/></g></svg>